<?xml version="1.0" encoding="utf-8" standalone="no"?>
<!DOCTYPE svg PUBLIC "-//W3C//DTD SVG 1.1//EN"
  "http://www.w3.org/Graphics/SVG/1.1/DTD/svg11.dtd">
<svg xmlns:xlink="http://www.w3.org/1999/xlink" width="720pt" height="720pt" viewBox="0 0 720 720" xmlns="http://www.w3.org/2000/svg" version="1.1">
 <metadata>
  <rdf:RDF xmlns:dc="http://purl.org/dc/elements/1.1/" xmlns:cc="http://creativecommons.org/ns#" xmlns:rdf="http://www.w3.org/1999/02/22-rdf-syntax-ns#">
   <cc:Work>
    <dc:type rdf:resource="http://purl.org/dc/dcmitype/StillImage"/>
    <dc:date>2022-08-24T14:28:24.418178</dc:date>
    <dc:format>image/svg+xml</dc:format>
    <dc:creator>
     <cc:Agent>
      <dc:title>Matplotlib v3.5.1, https://matplotlib.org/</dc:title>
     </cc:Agent>
    </dc:creator>
   </cc:Work>
  </rdf:RDF>
 </metadata>
 <defs>
  <style type="text/css">*{stroke-linejoin: round; stroke-linecap: butt}</style>
 </defs>
 <g id="figure_1">
  <g id="patch_1">
   <path d="M 0 720 
L 720 720 
L 720 0 
L 0 0 
z
" style="fill: #ffffff"/>
  </g>
  <g id="axes_1">
   <g id="patch_2">
    <path d="M 90 630 
L 648 630 
L 648 86.4 
L 90 86.4 
z
" style="fill: #e5e5e5"/>
   </g>
   <g id="matplotlib.axis_1">
    <g id="xtick_1">
     <g id="line2d_1">
      <defs>
       <path id="m679f1f1bf1" d="M 0 0 
L 0 3.5 
" style="stroke: #555555; stroke-width: 0.8"/>
      </defs>
      <g>
       <use xlink:href="#m679f1f1bf1" x="183" y="630" style="fill: #555555; stroke: #555555; stroke-width: 0.8"/>
      </g>
     </g>
     <g id="text_1">
      <!-- + -->
      <g style="fill: #555555" transform="translate(178.810156 644.598438)scale(0.1 -0.1)">
       <defs>
        <path id="DejaVuSans-2b" d="M 2944 4013 
L 2944 2272 
L 4684 2272 
L 4684 1741 
L 2944 1741 
L 2944 0 
L 2419 0 
L 2419 1741 
L 678 1741 
L 678 2272 
L 2419 2272 
L 2419 4013 
L 2944 4013 
z
" transform="scale(0.015625)"/>
       </defs>
       <use xlink:href="#DejaVuSans-2b"/>
      </g>
     </g>
    </g>
    <g id="xtick_2">
     <g id="line2d_2">
      <g>
       <use xlink:href="#m679f1f1bf1" x="369" y="630" style="fill: #555555; stroke: #555555; stroke-width: 0.8"/>
      </g>
     </g>
     <g id="text_2">
      <!-- ++ -->
      <g style="fill: #555555" transform="translate(360.620313 644.598438)scale(0.1 -0.1)">
       <use xlink:href="#DejaVuSans-2b"/>
       <use xlink:href="#DejaVuSans-2b" x="83.789062"/>
      </g>
     </g>
    </g>
    <g id="xtick_3">
     <g id="line2d_3">
      <g>
       <use xlink:href="#m679f1f1bf1" x="555" y="630" style="fill: #555555; stroke: #555555; stroke-width: 0.8"/>
      </g>
     </g>
     <g id="text_3">
      <!-- +++ -->
      <g style="fill: #555555" transform="translate(542.430469 644.598438)scale(0.1 -0.1)">
       <use xlink:href="#DejaVuSans-2b"/>
       <use xlink:href="#DejaVuSans-2b" x="83.789062"/>
       <use xlink:href="#DejaVuSans-2b" x="167.578125"/>
      </g>
     </g>
    </g>
    <g id="text_4">
     <!-- smear grade -->
     <g style="fill: #555555" transform="translate(324.473437 661.315938)scale(0.14 -0.14)">
      <defs>
       <path id="DejaVuSans-73" d="M 2834 3397 
L 2834 2853 
Q 2591 2978 2328 3040 
Q 2066 3103 1784 3103 
Q 1356 3103 1142 2972 
Q 928 2841 928 2578 
Q 928 2378 1081 2264 
Q 1234 2150 1697 2047 
L 1894 2003 
Q 2506 1872 2764 1633 
Q 3022 1394 3022 966 
Q 3022 478 2636 193 
Q 2250 -91 1575 -91 
Q 1294 -91 989 -36 
Q 684 19 347 128 
L 347 722 
Q 666 556 975 473 
Q 1284 391 1588 391 
Q 1994 391 2212 530 
Q 2431 669 2431 922 
Q 2431 1156 2273 1281 
Q 2116 1406 1581 1522 
L 1381 1569 
Q 847 1681 609 1914 
Q 372 2147 372 2553 
Q 372 3047 722 3315 
Q 1072 3584 1716 3584 
Q 2034 3584 2315 3537 
Q 2597 3491 2834 3397 
z
" transform="scale(0.015625)"/>
       <path id="DejaVuSans-6d" d="M 3328 2828 
Q 3544 3216 3844 3400 
Q 4144 3584 4550 3584 
Q 5097 3584 5394 3201 
Q 5691 2819 5691 2113 
L 5691 0 
L 5113 0 
L 5113 2094 
Q 5113 2597 4934 2840 
Q 4756 3084 4391 3084 
Q 3944 3084 3684 2787 
Q 3425 2491 3425 1978 
L 3425 0 
L 2847 0 
L 2847 2094 
Q 2847 2600 2669 2842 
Q 2491 3084 2119 3084 
Q 1678 3084 1418 2786 
Q 1159 2488 1159 1978 
L 1159 0 
L 581 0 
L 581 3500 
L 1159 3500 
L 1159 2956 
Q 1356 3278 1631 3431 
Q 1906 3584 2284 3584 
Q 2666 3584 2933 3390 
Q 3200 3197 3328 2828 
z
" transform="scale(0.015625)"/>
       <path id="DejaVuSans-65" d="M 3597 1894 
L 3597 1613 
L 953 1613 
Q 991 1019 1311 708 
Q 1631 397 2203 397 
Q 2534 397 2845 478 
Q 3156 559 3463 722 
L 3463 178 
Q 3153 47 2828 -22 
Q 2503 -91 2169 -91 
Q 1331 -91 842 396 
Q 353 884 353 1716 
Q 353 2575 817 3079 
Q 1281 3584 2069 3584 
Q 2775 3584 3186 3129 
Q 3597 2675 3597 1894 
z
M 3022 2063 
Q 3016 2534 2758 2815 
Q 2500 3097 2075 3097 
Q 1594 3097 1305 2825 
Q 1016 2553 972 2059 
L 3022 2063 
z
" transform="scale(0.015625)"/>
       <path id="DejaVuSans-61" d="M 2194 1759 
Q 1497 1759 1228 1600 
Q 959 1441 959 1056 
Q 959 750 1161 570 
Q 1363 391 1709 391 
Q 2188 391 2477 730 
Q 2766 1069 2766 1631 
L 2766 1759 
L 2194 1759 
z
M 3341 1997 
L 3341 0 
L 2766 0 
L 2766 531 
Q 2569 213 2275 61 
Q 1981 -91 1556 -91 
Q 1019 -91 701 211 
Q 384 513 384 1019 
Q 384 1609 779 1909 
Q 1175 2209 1959 2209 
L 2766 2209 
L 2766 2266 
Q 2766 2663 2505 2880 
Q 2244 3097 1772 3097 
Q 1472 3097 1187 3025 
Q 903 2953 641 2809 
L 641 3341 
Q 956 3463 1253 3523 
Q 1550 3584 1831 3584 
Q 2591 3584 2966 3190 
Q 3341 2797 3341 1997 
z
" transform="scale(0.015625)"/>
       <path id="DejaVuSans-72" d="M 2631 2963 
Q 2534 3019 2420 3045 
Q 2306 3072 2169 3072 
Q 1681 3072 1420 2755 
Q 1159 2438 1159 1844 
L 1159 0 
L 581 0 
L 581 3500 
L 1159 3500 
L 1159 2956 
Q 1341 3275 1631 3429 
Q 1922 3584 2338 3584 
Q 2397 3584 2469 3576 
Q 2541 3569 2628 3553 
L 2631 2963 
z
" transform="scale(0.015625)"/>
       <path id="DejaVuSans-20" transform="scale(0.015625)"/>
       <path id="DejaVuSans-67" d="M 2906 1791 
Q 2906 2416 2648 2759 
Q 2391 3103 1925 3103 
Q 1463 3103 1205 2759 
Q 947 2416 947 1791 
Q 947 1169 1205 825 
Q 1463 481 1925 481 
Q 2391 481 2648 825 
Q 2906 1169 2906 1791 
z
M 3481 434 
Q 3481 -459 3084 -895 
Q 2688 -1331 1869 -1331 
Q 1566 -1331 1297 -1286 
Q 1028 -1241 775 -1147 
L 775 -588 
Q 1028 -725 1275 -790 
Q 1522 -856 1778 -856 
Q 2344 -856 2625 -561 
Q 2906 -266 2906 331 
L 2906 616 
Q 2728 306 2450 153 
Q 2172 0 1784 0 
Q 1141 0 747 490 
Q 353 981 353 1791 
Q 353 2603 747 3093 
Q 1141 3584 1784 3584 
Q 2172 3584 2450 3431 
Q 2728 3278 2906 2969 
L 2906 3500 
L 3481 3500 
L 3481 434 
z
" transform="scale(0.015625)"/>
       <path id="DejaVuSans-64" d="M 2906 2969 
L 2906 4863 
L 3481 4863 
L 3481 0 
L 2906 0 
L 2906 525 
Q 2725 213 2448 61 
Q 2172 -91 1784 -91 
Q 1150 -91 751 415 
Q 353 922 353 1747 
Q 353 2572 751 3078 
Q 1150 3584 1784 3584 
Q 2172 3584 2448 3432 
Q 2725 3281 2906 2969 
z
M 947 1747 
Q 947 1113 1208 752 
Q 1469 391 1925 391 
Q 2381 391 2643 752 
Q 2906 1113 2906 1747 
Q 2906 2381 2643 2742 
Q 2381 3103 1925 3103 
Q 1469 3103 1208 2742 
Q 947 2381 947 1747 
z
" transform="scale(0.015625)"/>
      </defs>
      <use xlink:href="#DejaVuSans-73"/>
      <use xlink:href="#DejaVuSans-6d" x="52.099609"/>
      <use xlink:href="#DejaVuSans-65" x="149.511719"/>
      <use xlink:href="#DejaVuSans-61" x="211.035156"/>
      <use xlink:href="#DejaVuSans-72" x="272.314453"/>
      <use xlink:href="#DejaVuSans-20" x="313.427734"/>
      <use xlink:href="#DejaVuSans-67" x="345.214844"/>
      <use xlink:href="#DejaVuSans-72" x="408.691406"/>
      <use xlink:href="#DejaVuSans-61" x="449.804688"/>
      <use xlink:href="#DejaVuSans-64" x="511.083984"/>
      <use xlink:href="#DejaVuSans-65" x="574.560547"/>
     </g>
    </g>
   </g>
   <g id="matplotlib.axis_2">
    <g id="ytick_1">
     <g id="line2d_4">
      <path d="M 90 616.394379 
L 648 616.394379 
" clip-path="url(#p8d7dc62953)" style="fill: none; stroke: #ffffff; stroke-width: 0.8; stroke-linecap: square"/>
     </g>
     <g id="line2d_5">
      <defs>
       <path id="mad0ac883e3" d="M 0 0 
L -3.5 0 
" style="stroke: #555555; stroke-width: 0.8"/>
      </defs>
      <g>
       <use xlink:href="#mad0ac883e3" x="90" y="616.394379" style="fill: #555555; stroke: #555555; stroke-width: 0.8"/>
      </g>
     </g>
     <g id="text_5">
      <!-- 0 -->
      <g style="fill: #555555" transform="translate(76.6375 620.193598)scale(0.1 -0.1)">
       <defs>
        <path id="DejaVuSans-30" d="M 2034 4250 
Q 1547 4250 1301 3770 
Q 1056 3291 1056 2328 
Q 1056 1369 1301 889 
Q 1547 409 2034 409 
Q 2525 409 2770 889 
Q 3016 1369 3016 2328 
Q 3016 3291 2770 3770 
Q 2525 4250 2034 4250 
z
M 2034 4750 
Q 2819 4750 3233 4129 
Q 3647 3509 3647 2328 
Q 3647 1150 3233 529 
Q 2819 -91 2034 -91 
Q 1250 -91 836 529 
Q 422 1150 422 2328 
Q 422 3509 836 4129 
Q 1250 4750 2034 4750 
z
" transform="scale(0.015625)"/>
       </defs>
       <use xlink:href="#DejaVuSans-30"/>
      </g>
     </g>
    </g>
    <g id="ytick_2">
     <g id="line2d_6">
      <path d="M 90 500.176557 
L 648 500.176557 
" clip-path="url(#p8d7dc62953)" style="fill: none; stroke: #ffffff; stroke-width: 0.8; stroke-linecap: square"/>
     </g>
     <g id="line2d_7">
      <g>
       <use xlink:href="#mad0ac883e3" x="90" y="500.176557" style="fill: #555555; stroke: #555555; stroke-width: 0.8"/>
      </g>
     </g>
     <g id="text_6">
      <!-- 100 -->
      <g style="fill: #555555" transform="translate(63.9125 503.975776)scale(0.1 -0.1)">
       <defs>
        <path id="DejaVuSans-31" d="M 794 531 
L 1825 531 
L 1825 4091 
L 703 3866 
L 703 4441 
L 1819 4666 
L 2450 4666 
L 2450 531 
L 3481 531 
L 3481 0 
L 794 0 
L 794 531 
z
" transform="scale(0.015625)"/>
       </defs>
       <use xlink:href="#DejaVuSans-31"/>
       <use xlink:href="#DejaVuSans-30" x="63.623047"/>
       <use xlink:href="#DejaVuSans-30" x="127.246094"/>
      </g>
     </g>
    </g>
    <g id="ytick_3">
     <g id="line2d_8">
      <path d="M 90 383.958735 
L 648 383.958735 
" clip-path="url(#p8d7dc62953)" style="fill: none; stroke: #ffffff; stroke-width: 0.8; stroke-linecap: square"/>
     </g>
     <g id="line2d_9">
      <g>
       <use xlink:href="#mad0ac883e3" x="90" y="383.958735" style="fill: #555555; stroke: #555555; stroke-width: 0.8"/>
      </g>
     </g>
     <g id="text_7">
      <!-- 200 -->
      <g style="fill: #555555" transform="translate(63.9125 387.757954)scale(0.1 -0.1)">
       <defs>
        <path id="DejaVuSans-32" d="M 1228 531 
L 3431 531 
L 3431 0 
L 469 0 
L 469 531 
Q 828 903 1448 1529 
Q 2069 2156 2228 2338 
Q 2531 2678 2651 2914 
Q 2772 3150 2772 3378 
Q 2772 3750 2511 3984 
Q 2250 4219 1831 4219 
Q 1534 4219 1204 4116 
Q 875 4013 500 3803 
L 500 4441 
Q 881 4594 1212 4672 
Q 1544 4750 1819 4750 
Q 2544 4750 2975 4387 
Q 3406 4025 3406 3419 
Q 3406 3131 3298 2873 
Q 3191 2616 2906 2266 
Q 2828 2175 2409 1742 
Q 1991 1309 1228 531 
z
" transform="scale(0.015625)"/>
       </defs>
       <use xlink:href="#DejaVuSans-32"/>
       <use xlink:href="#DejaVuSans-30" x="63.623047"/>
       <use xlink:href="#DejaVuSans-30" x="127.246094"/>
      </g>
     </g>
    </g>
    <g id="ytick_4">
     <g id="line2d_10">
      <path d="M 90 267.740914 
L 648 267.740914 
" clip-path="url(#p8d7dc62953)" style="fill: none; stroke: #ffffff; stroke-width: 0.8; stroke-linecap: square"/>
     </g>
     <g id="line2d_11">
      <g>
       <use xlink:href="#mad0ac883e3" x="90" y="267.740914" style="fill: #555555; stroke: #555555; stroke-width: 0.8"/>
      </g>
     </g>
     <g id="text_8">
      <!-- 300 -->
      <g style="fill: #555555" transform="translate(63.9125 271.540132)scale(0.1 -0.1)">
       <defs>
        <path id="DejaVuSans-33" d="M 2597 2516 
Q 3050 2419 3304 2112 
Q 3559 1806 3559 1356 
Q 3559 666 3084 287 
Q 2609 -91 1734 -91 
Q 1441 -91 1130 -33 
Q 819 25 488 141 
L 488 750 
Q 750 597 1062 519 
Q 1375 441 1716 441 
Q 2309 441 2620 675 
Q 2931 909 2931 1356 
Q 2931 1769 2642 2001 
Q 2353 2234 1838 2234 
L 1294 2234 
L 1294 2753 
L 1863 2753 
Q 2328 2753 2575 2939 
Q 2822 3125 2822 3475 
Q 2822 3834 2567 4026 
Q 2313 4219 1838 4219 
Q 1578 4219 1281 4162 
Q 984 4106 628 3988 
L 628 4550 
Q 988 4650 1302 4700 
Q 1616 4750 1894 4750 
Q 2613 4750 3031 4423 
Q 3450 4097 3450 3541 
Q 3450 3153 3228 2886 
Q 3006 2619 2597 2516 
z
" transform="scale(0.015625)"/>
       </defs>
       <use xlink:href="#DejaVuSans-33"/>
       <use xlink:href="#DejaVuSans-30" x="63.623047"/>
       <use xlink:href="#DejaVuSans-30" x="127.246094"/>
      </g>
     </g>
    </g>
    <g id="ytick_5">
     <g id="line2d_12">
      <path d="M 90 151.523092 
L 648 151.523092 
" clip-path="url(#p8d7dc62953)" style="fill: none; stroke: #ffffff; stroke-width: 0.8; stroke-linecap: square"/>
     </g>
     <g id="line2d_13">
      <g>
       <use xlink:href="#mad0ac883e3" x="90" y="151.523092" style="fill: #555555; stroke: #555555; stroke-width: 0.8"/>
      </g>
     </g>
     <g id="text_9">
      <!-- 400 -->
      <g style="fill: #555555" transform="translate(63.9125 155.32231)scale(0.1 -0.1)">
       <defs>
        <path id="DejaVuSans-34" d="M 2419 4116 
L 825 1625 
L 2419 1625 
L 2419 4116 
z
M 2253 4666 
L 3047 4666 
L 3047 1625 
L 3713 1625 
L 3713 1100 
L 3047 1100 
L 3047 0 
L 2419 0 
L 2419 1100 
L 313 1100 
L 313 1709 
L 2253 4666 
z
" transform="scale(0.015625)"/>
       </defs>
       <use xlink:href="#DejaVuSans-34"/>
       <use xlink:href="#DejaVuSans-30" x="63.623047"/>
       <use xlink:href="#DejaVuSans-30" x="127.246094"/>
      </g>
     </g>
    </g>
    <g id="text_10">
     <!-- DNA concentration (ng/$\mu$l) -->
     <g style="fill: #555555" transform="translate(56.9725 449.69)rotate(-90)scale(0.14 -0.14)">
      <defs>
       <path id="DejaVuSans-44" d="M 1259 4147 
L 1259 519 
L 2022 519 
Q 2988 519 3436 956 
Q 3884 1394 3884 2338 
Q 3884 3275 3436 3711 
Q 2988 4147 2022 4147 
L 1259 4147 
z
M 628 4666 
L 1925 4666 
Q 3281 4666 3915 4102 
Q 4550 3538 4550 2338 
Q 4550 1131 3912 565 
Q 3275 0 1925 0 
L 628 0 
L 628 4666 
z
" transform="scale(0.015625)"/>
       <path id="DejaVuSans-4e" d="M 628 4666 
L 1478 4666 
L 3547 763 
L 3547 4666 
L 4159 4666 
L 4159 0 
L 3309 0 
L 1241 3903 
L 1241 0 
L 628 0 
L 628 4666 
z
" transform="scale(0.015625)"/>
       <path id="DejaVuSans-41" d="M 2188 4044 
L 1331 1722 
L 3047 1722 
L 2188 4044 
z
M 1831 4666 
L 2547 4666 
L 4325 0 
L 3669 0 
L 3244 1197 
L 1141 1197 
L 716 0 
L 50 0 
L 1831 4666 
z
" transform="scale(0.015625)"/>
       <path id="DejaVuSans-63" d="M 3122 3366 
L 3122 2828 
Q 2878 2963 2633 3030 
Q 2388 3097 2138 3097 
Q 1578 3097 1268 2742 
Q 959 2388 959 1747 
Q 959 1106 1268 751 
Q 1578 397 2138 397 
Q 2388 397 2633 464 
Q 2878 531 3122 666 
L 3122 134 
Q 2881 22 2623 -34 
Q 2366 -91 2075 -91 
Q 1284 -91 818 406 
Q 353 903 353 1747 
Q 353 2603 823 3093 
Q 1294 3584 2113 3584 
Q 2378 3584 2631 3529 
Q 2884 3475 3122 3366 
z
" transform="scale(0.015625)"/>
       <path id="DejaVuSans-6f" d="M 1959 3097 
Q 1497 3097 1228 2736 
Q 959 2375 959 1747 
Q 959 1119 1226 758 
Q 1494 397 1959 397 
Q 2419 397 2687 759 
Q 2956 1122 2956 1747 
Q 2956 2369 2687 2733 
Q 2419 3097 1959 3097 
z
M 1959 3584 
Q 2709 3584 3137 3096 
Q 3566 2609 3566 1747 
Q 3566 888 3137 398 
Q 2709 -91 1959 -91 
Q 1206 -91 779 398 
Q 353 888 353 1747 
Q 353 2609 779 3096 
Q 1206 3584 1959 3584 
z
" transform="scale(0.015625)"/>
       <path id="DejaVuSans-6e" d="M 3513 2113 
L 3513 0 
L 2938 0 
L 2938 2094 
Q 2938 2591 2744 2837 
Q 2550 3084 2163 3084 
Q 1697 3084 1428 2787 
Q 1159 2491 1159 1978 
L 1159 0 
L 581 0 
L 581 3500 
L 1159 3500 
L 1159 2956 
Q 1366 3272 1645 3428 
Q 1925 3584 2291 3584 
Q 2894 3584 3203 3211 
Q 3513 2838 3513 2113 
z
" transform="scale(0.015625)"/>
       <path id="DejaVuSans-74" d="M 1172 4494 
L 1172 3500 
L 2356 3500 
L 2356 3053 
L 1172 3053 
L 1172 1153 
Q 1172 725 1289 603 
Q 1406 481 1766 481 
L 2356 481 
L 2356 0 
L 1766 0 
Q 1100 0 847 248 
Q 594 497 594 1153 
L 594 3053 
L 172 3053 
L 172 3500 
L 594 3500 
L 594 4494 
L 1172 4494 
z
" transform="scale(0.015625)"/>
       <path id="DejaVuSans-69" d="M 603 3500 
L 1178 3500 
L 1178 0 
L 603 0 
L 603 3500 
z
M 603 4863 
L 1178 4863 
L 1178 4134 
L 603 4134 
L 603 4863 
z
" transform="scale(0.015625)"/>
       <path id="DejaVuSans-28" d="M 1984 4856 
Q 1566 4138 1362 3434 
Q 1159 2731 1159 2009 
Q 1159 1288 1364 580 
Q 1569 -128 1984 -844 
L 1484 -844 
Q 1016 -109 783 600 
Q 550 1309 550 2009 
Q 550 2706 781 3412 
Q 1013 4119 1484 4856 
L 1984 4856 
z
" transform="scale(0.015625)"/>
       <path id="DejaVuSans-2f" d="M 1625 4666 
L 2156 4666 
L 531 -594 
L 0 -594 
L 1625 4666 
z
" transform="scale(0.015625)"/>
       <path id="DejaVuSans-Oblique-3bc" d="M -84 -1331 
L 856 3500 
L 1434 3500 
L 1009 1322 
Q 997 1256 987 1175 
Q 978 1094 978 1013 
Q 978 722 1161 565 
Q 1344 409 1684 409 
Q 2147 409 2431 671 
Q 2716 934 2816 1459 
L 3213 3500 
L 3788 3500 
L 3266 809 
Q 3253 750 3248 706 
Q 3244 663 3244 628 
Q 3244 531 3283 486 
Q 3322 441 3406 441 
Q 3438 441 3492 456 
Q 3547 472 3647 513 
L 3559 50 
Q 3422 -19 3297 -55 
Q 3172 -91 3053 -91 
Q 2847 -91 2730 40 
Q 2613 172 2613 403 
Q 2438 153 2195 31 
Q 1953 -91 1625 -91 
Q 1334 -91 1117 43 
Q 900 178 831 397 
L 494 -1331 
L -84 -1331 
z
" transform="scale(0.015625)"/>
       <path id="DejaVuSans-6c" d="M 603 4863 
L 1178 4863 
L 1178 0 
L 603 0 
L 603 4863 
z
" transform="scale(0.015625)"/>
       <path id="DejaVuSans-29" d="M 513 4856 
L 1013 4856 
Q 1481 4119 1714 3412 
Q 1947 2706 1947 2009 
Q 1947 1309 1714 600 
Q 1481 -109 1013 -844 
L 513 -844 
Q 928 -128 1133 580 
Q 1338 1288 1338 2009 
Q 1338 2731 1133 3434 
Q 928 4138 513 4856 
z
" transform="scale(0.015625)"/>
      </defs>
      <use xlink:href="#DejaVuSans-44" transform="translate(0 0.015625)"/>
      <use xlink:href="#DejaVuSans-4e" transform="translate(77.001953 0.015625)"/>
      <use xlink:href="#DejaVuSans-41" transform="translate(151.806641 0.015625)"/>
      <use xlink:href="#DejaVuSans-20" transform="translate(220.214844 0.015625)"/>
      <use xlink:href="#DejaVuSans-63" transform="translate(252.001953 0.015625)"/>
      <use xlink:href="#DejaVuSans-6f" transform="translate(306.982422 0.015625)"/>
      <use xlink:href="#DejaVuSans-6e" transform="translate(368.164062 0.015625)"/>
      <use xlink:href="#DejaVuSans-63" transform="translate(431.542969 0.015625)"/>
      <use xlink:href="#DejaVuSans-65" transform="translate(486.523438 0.015625)"/>
      <use xlink:href="#DejaVuSans-6e" transform="translate(548.046875 0.015625)"/>
      <use xlink:href="#DejaVuSans-74" transform="translate(611.425781 0.015625)"/>
      <use xlink:href="#DejaVuSans-72" transform="translate(650.634766 0.015625)"/>
      <use xlink:href="#DejaVuSans-61" transform="translate(691.748047 0.015625)"/>
      <use xlink:href="#DejaVuSans-74" transform="translate(753.027344 0.015625)"/>
      <use xlink:href="#DejaVuSans-69" transform="translate(792.236328 0.015625)"/>
      <use xlink:href="#DejaVuSans-6f" transform="translate(820.019531 0.015625)"/>
      <use xlink:href="#DejaVuSans-6e" transform="translate(881.201172 0.015625)"/>
      <use xlink:href="#DejaVuSans-20" transform="translate(944.580078 0.015625)"/>
      <use xlink:href="#DejaVuSans-28" transform="translate(976.367188 0.015625)"/>
      <use xlink:href="#DejaVuSans-6e" transform="translate(1015.380859 0.015625)"/>
      <use xlink:href="#DejaVuSans-67" transform="translate(1078.759766 0.015625)"/>
      <use xlink:href="#DejaVuSans-2f" transform="translate(1142.236328 0.015625)"/>
      <use xlink:href="#DejaVuSans-Oblique-3bc" transform="translate(1175.927734 0.015625)"/>
      <use xlink:href="#DejaVuSans-6c" transform="translate(1239.550781 0.015625)"/>
      <use xlink:href="#DejaVuSans-29" transform="translate(1267.333984 0.015625)"/>
     </g>
    </g>
   </g>
   <g id="patch_3">
    <path d="M 108.6 578.39115 
L 257.4 578.39115 
L 257.4 552.474577 
L 108.6 552.474577 
L 108.6 578.39115 
z
" clip-path="url(#p8d7dc62953)" style="fill: #cc5a49; stroke: #484848; stroke-width: 1.5; stroke-linejoin: miter"/>
   </g>
   <g id="patch_4">
    <path d="M 294.6 584.143934 
L 443.4 584.143934 
L 443.4 451.365072 
L 294.6 451.365072 
L 294.6 584.143934 
z
" clip-path="url(#p8d7dc62953)" style="fill: #4586ac; stroke: #484848; stroke-width: 1.5; stroke-linejoin: miter"/>
   </g>
   <g id="patch_5">
    <path d="M 480.6 577.519518 
L 629.4 577.519518 
L 629.4 493.494033 
L 480.6 493.494033 
L 480.6 577.519518 
z
" clip-path="url(#p8d7dc62953)" style="fill: #9e97cc; stroke: #484848; stroke-width: 1.5; stroke-linejoin: miter"/>
   </g>
   <g id="line2d_14">
    <path d="M 183 578.39115 
L 183 604.772597 
" clip-path="url(#p8d7dc62953)" style="fill: none; stroke: #484848; stroke-width: 1.5; stroke-linecap: square"/>
   </g>
   <g id="line2d_15">
    <path d="M 183 552.474577 
L 183 540.852795 
" clip-path="url(#p8d7dc62953)" style="fill: none; stroke: #484848; stroke-width: 1.5; stroke-linecap: square"/>
   </g>
   <g id="line2d_16">
    <path d="M 145.8 604.772597 
L 220.2 604.772597 
" clip-path="url(#p8d7dc62953)" style="fill: none; stroke: #484848; stroke-width: 1.5; stroke-linecap: square"/>
   </g>
   <g id="line2d_17">
    <path d="M 145.8 540.852795 
L 220.2 540.852795 
" clip-path="url(#p8d7dc62953)" style="fill: none; stroke: #484848; stroke-width: 1.5; stroke-linecap: square"/>
   </g>
   <g id="line2d_18"/>
   <g id="line2d_19">
    <path d="M 369 584.143934 
L 369 600.123884 
" clip-path="url(#p8d7dc62953)" style="fill: none; stroke: #484848; stroke-width: 1.5; stroke-linecap: square"/>
   </g>
   <g id="line2d_20">
    <path d="M 369 451.365072 
L 369 300.281904 
" clip-path="url(#p8d7dc62953)" style="fill: none; stroke: #484848; stroke-width: 1.5; stroke-linecap: square"/>
   </g>
   <g id="line2d_21">
    <path d="M 331.8 600.123884 
L 406.2 600.123884 
" clip-path="url(#p8d7dc62953)" style="fill: none; stroke: #484848; stroke-width: 1.5; stroke-linecap: square"/>
   </g>
   <g id="line2d_22">
    <path d="M 331.8 300.281904 
L 406.2 300.281904 
" clip-path="url(#p8d7dc62953)" style="fill: none; stroke: #484848; stroke-width: 1.5; stroke-linecap: square"/>
   </g>
   <g id="line2d_23"/>
   <g id="line2d_24">
    <path d="M 555 577.519518 
L 555 608.654273 
" clip-path="url(#p8d7dc62953)" style="fill: none; stroke: #484848; stroke-width: 1.5; stroke-linecap: square"/>
   </g>
   <g id="line2d_25">
    <path d="M 555 493.494033 
L 555 370.012597 
" clip-path="url(#p8d7dc62953)" style="fill: none; stroke: #484848; stroke-width: 1.5; stroke-linecap: square"/>
   </g>
   <g id="line2d_26">
    <path d="M 517.8 608.654273 
L 592.2 608.654273 
" clip-path="url(#p8d7dc62953)" style="fill: none; stroke: #484848; stroke-width: 1.5; stroke-linecap: square"/>
   </g>
   <g id="line2d_27">
    <path d="M 517.8 370.012597 
L 592.2 370.012597 
" clip-path="url(#p8d7dc62953)" style="fill: none; stroke: #484848; stroke-width: 1.5; stroke-linecap: square"/>
   </g>
   <g id="line2d_28"/>
   <g id="line2d_29">
    <path d="M 183 272.105544 
L 183 262.713424 
L 369 262.713424 
L 369 272.105544 
" clip-path="url(#p8d7dc62953)" style="fill: none; stroke: #333333; stroke-width: 1.5; stroke-linecap: square"/>
   </g>
   <g id="line2d_30">
    <path d="M 369 153.563365 
L 369 144.171245 
L 555 144.171245 
L 555 153.563365 
" clip-path="url(#p8d7dc62953)" style="fill: none; stroke: #333333; stroke-width: 1.5; stroke-linecap: square"/>
   </g>
   <g id="line2d_31">
    <path d="M 183 125.856957 
L 183 116.464837 
L 555 116.464837 
L 555 125.856957 
" clip-path="url(#p8d7dc62953)" style="fill: none; stroke: #333333; stroke-width: 1.5; stroke-linecap: square"/>
   </g>
   <g id="line2d_32">
    <path d="M 108.6 558.982773 
L 257.4 558.982773 
" clip-path="url(#p8d7dc62953)" style="fill: none; stroke: #484848; stroke-width: 1.5; stroke-linecap: square"/>
   </g>
   <g id="line2d_33">
    <path d="M 294.6 538.528439 
L 443.4 538.528439 
" clip-path="url(#p8d7dc62953)" style="fill: none; stroke: #484848; stroke-width: 1.5; stroke-linecap: square"/>
   </g>
   <g id="line2d_34">
    <path d="M 480.6 547.128557 
L 629.4 547.128557 
" clip-path="url(#p8d7dc62953)" style="fill: none; stroke: #484848; stroke-width: 1.5; stroke-linecap: square"/>
   </g>
   <g id="patch_6">
    <path d="M 90 630 
L 90 86.4 
" style="fill: none; stroke: #ffffff; stroke-linejoin: miter; stroke-linecap: square"/>
   </g>
   <g id="patch_7">
    <path d="M 648 630 
L 648 86.4 
" style="fill: none; stroke: #ffffff; stroke-linejoin: miter; stroke-linecap: square"/>
   </g>
   <g id="patch_8">
    <path d="M 90 630 
L 648 630 
" style="fill: none; stroke: #ffffff; stroke-linejoin: miter; stroke-linecap: square"/>
   </g>
   <g id="patch_9">
    <path d="M 90 86.4 
L 648 86.4 
" style="fill: none; stroke: #ffffff; stroke-linejoin: miter; stroke-linecap: square"/>
   </g>
   <g id="PathCollection_1">
    <defs>
     <path id="C0_0_54942d866e" d="M 0 2.5 
C 0.663008 2.5 1.29895 2.236584 1.767767 1.767767 
C 2.236584 1.29895 2.5 0.663008 2.5 -0 
C 2.5 -0.663008 2.236584 -1.29895 1.767767 -1.767767 
C 1.29895 -2.236584 0.663008 -2.5 0 -2.5 
C -0.663008 -2.5 -1.29895 -2.236584 -1.767767 -1.767767 
C -2.236584 -1.29895 -2.5 -0.663008 -2.5 0 
C -2.5 0.663008 -2.236584 1.29895 -1.767767 1.767767 
C -1.29895 2.236584 -0.663008 2.5 0 2.5 
z
"/>
    </defs>
    <g clip-path="url(#p8d7dc62953)">
     <use xlink:href="#C0_0_54942d866e" x="184.803121" y="552.474577" style="fill-opacity: 0.6"/>
    </g>
    <g clip-path="url(#p8d7dc62953)">
     <use xlink:href="#C0_0_54942d866e" x="192.245575" y="558.982773" style="fill-opacity: 0.6"/>
    </g>
    <g clip-path="url(#p8d7dc62953)">
     <use xlink:href="#C0_0_54942d866e" x="188.571662" y="483.906062" style="fill-opacity: 0.6"/>
    </g>
    <g clip-path="url(#p8d7dc62953)">
     <use xlink:href="#C0_0_54942d866e" x="195.383901" y="559.447647" style="fill-opacity: 0.6"/>
    </g>
    <g clip-path="url(#p8d7dc62953)">
     <use xlink:href="#C0_0_54942d866e" x="192.666699" y="500.176557" style="fill-opacity: 0.6"/>
    </g>
    <g clip-path="url(#p8d7dc62953)">
     <use xlink:href="#C0_0_54942d866e" x="193.664121" y="604.772597" style="fill-opacity: 0.6"/>
    </g>
    <g clip-path="url(#p8d7dc62953)">
     <use xlink:href="#C0_0_54942d866e" x="190.588077" y="540.852795" style="fill-opacity: 0.6"/>
    </g>
    <g clip-path="url(#p8d7dc62953)">
     <use xlink:href="#C0_0_54942d866e" x="172.856893" y="578.042498" style="fill-opacity: 0.6"/>
    </g>
    <g clip-path="url(#p8d7dc62953)">
     <use xlink:href="#C0_0_54942d866e" x="173.187615" y="552.474577" style="fill-opacity: 0.6"/>
    </g>
    <g clip-path="url(#p8d7dc62953)">
     <use xlink:href="#C0_0_54942d866e" x="176.092822" y="553.636755" style="fill-opacity: 0.6"/>
    </g>
    <g clip-path="url(#p8d7dc62953)">
     <use xlink:href="#C0_0_54942d866e" x="169.547603" y="571.99917" style="fill-opacity: 0.6"/>
    </g>
    <g clip-path="url(#p8d7dc62953)">
     <use xlink:href="#C0_0_54942d866e" x="167.061719" y="586.410182" style="fill-opacity: 0.6"/>
    </g>
    <g clip-path="url(#p8d7dc62953)">
     <use xlink:href="#C0_0_54942d866e" x="172.579055" y="590.361587" style="fill-opacity: 0.6"/>
    </g>
    <g clip-path="url(#p8d7dc62953)">
     <use xlink:href="#C0_0_54942d866e" x="172.041934" y="578.739803" style="fill-opacity: 0.6"/>
    </g>
    <g clip-path="url(#p8d7dc62953)">
     <use xlink:href="#C0_0_54942d866e" x="193.296044" y="557.12329" style="fill-opacity: 0.6"/>
    </g>
   </g>
   <g id="PathCollection_2">
    <defs>
     <path id="C1_0_52abd17edb" d="M 0 2.5 
C 0.663008 2.5 1.29895 2.236584 1.767767 1.767767 
C 2.236584 1.29895 2.5 0.663008 2.5 -0 
C 2.5 -0.663008 2.236584 -1.29895 1.767767 -1.767767 
C 1.29895 -2.236584 0.663008 -2.5 0 -2.5 
C -0.663008 -2.5 -1.29895 -2.236584 -1.767767 -1.767767 
C -2.236584 -1.29895 -2.5 -0.663008 -2.5 0 
C -2.5 0.663008 -2.236584 1.29895 -1.767767 1.767767 
C -1.29895 2.236584 -0.663008 2.5 0 2.5 
z
"/>
    </defs>
    <g clip-path="url(#p8d7dc62953)">
     <use xlink:href="#C1_0_52abd17edb" x="384.877123" y="495.527845" style="fill-opacity: 0.6"/>
    </g>
    <g clip-path="url(#p8d7dc62953)">
     <use xlink:href="#C1_0_52abd17edb" x="356.604612" y="585.015567" style="fill-opacity: 0.6"/>
    </g>
    <g clip-path="url(#p8d7dc62953)">
     <use xlink:href="#C1_0_52abd17edb" x="377.243184" y="537.36626" style="fill-opacity: 0.6"/>
    </g>
    <g clip-path="url(#p8d7dc62953)">
     <use xlink:href="#C1_0_52abd17edb" x="356.356374" y="600.123884" style="fill-opacity: 0.6"/>
    </g>
    <g clip-path="url(#p8d7dc62953)">
     <use xlink:href="#C1_0_52abd17edb" x="361.516709" y="581.529033" style="fill-opacity: 0.6"/>
    </g>
    <g clip-path="url(#p8d7dc62953)">
     <use xlink:href="#C1_0_52abd17edb" x="359.180963" y="539.923049" style="fill-opacity: 0.6"/>
    </g>
    <g clip-path="url(#p8d7dc62953)">
     <use xlink:href="#C1_0_52abd17edb" x="359.394921" y="578.274935" style="fill-opacity: 0.6"/>
    </g>
    <g clip-path="url(#p8d7dc62953)">
     <use xlink:href="#C1_0_52abd17edb" x="359.541507" y="505.987449" style="fill-opacity: 0.6"/>
    </g>
    <g clip-path="url(#p8d7dc62953)">
     <use xlink:href="#C1_0_52abd17edb" x="367.890553" y="422.310617" style="fill-opacity: 0.6"/>
    </g>
    <g clip-path="url(#p8d7dc62953)">
     <use xlink:href="#C1_0_52abd17edb" x="366.01596" y="458.338142" style="fill-opacity: 0.6"/>
    </g>
    <g clip-path="url(#p8d7dc62953)">
     <use xlink:href="#C1_0_52abd17edb" x="381.654426" y="353.742102" style="fill-opacity: 0.6"/>
    </g>
    <g clip-path="url(#p8d7dc62953)">
     <use xlink:href="#C1_0_52abd17edb" x="370.039732" y="300.281904" style="fill-opacity: 0.6"/>
    </g>
    <g clip-path="url(#p8d7dc62953)">
     <use xlink:href="#C1_0_52abd17edb" x="372.586858" y="316.552399" style="fill-opacity: 0.6"/>
    </g>
    <g clip-path="url(#p8d7dc62953)">
     <use xlink:href="#C1_0_52abd17edb" x="356.544175" y="589.199409" style="fill-opacity: 0.6"/>
    </g>
    <g clip-path="url(#p8d7dc62953)">
     <use xlink:href="#C1_0_52abd17edb" x="385.752158" y="449.040716" style="fill-opacity: 0.6"/>
    </g>
    <g clip-path="url(#p8d7dc62953)">
     <use xlink:href="#C1_0_52abd17edb" x="363.774566" y="585.015567" style="fill-opacity: 0.6"/>
    </g>
    <g clip-path="url(#p8d7dc62953)">
     <use xlink:href="#C1_0_52abd17edb" x="359.355315" y="591.058895" style="fill-opacity: 0.6"/>
    </g>
    <g clip-path="url(#p8d7dc62953)">
     <use xlink:href="#C1_0_52abd17edb" x="352.232103" y="539.690617" style="fill-opacity: 0.6"/>
    </g>
   </g>
   <g id="PathCollection_3">
    <defs>
     <path id="C2_0_7bd811ee1e" d="M 0 2.5 
C 0.663008 2.5 1.29895 2.236584 1.767767 1.767767 
C 2.236584 1.29895 2.5 0.663008 2.5 -0 
C 2.5 -0.663008 2.236584 -1.29895 1.767767 -1.767767 
C 1.29895 -2.236584 0.663008 -2.5 0 -2.5 
C -0.663008 -2.5 -1.29895 -2.236584 -1.767767 -1.767767 
C -2.236584 -1.29895 -2.5 -0.663008 -2.5 0 
C -2.5 0.663008 -2.236584 1.29895 -1.767767 1.767767 
C -1.29895 2.236584 -0.663008 2.5 0 2.5 
z
"/>
    </defs>
    <g clip-path="url(#p8d7dc62953)">
     <use xlink:href="#C2_0_7bd811ee1e" x="547.292096" y="603.610419" style="fill-opacity: 0.6"/>
    </g>
    <g clip-path="url(#p8d7dc62953)">
     <use xlink:href="#C2_0_7bd811ee1e" x="553.897761" y="497.852201" style="fill-opacity: 0.6"/>
    </g>
    <g clip-path="url(#p8d7dc62953)">
     <use xlink:href="#C2_0_7bd811ee1e" x="544.419071" y="580.831726" style="fill-opacity: 0.6"/>
    </g>
    <g clip-path="url(#p8d7dc62953)">
     <use xlink:href="#C2_0_7bd811ee1e" x="566.749345" y="608.654273" style="fill-opacity: 0.6"/>
    </g>
    <g clip-path="url(#p8d7dc62953)">
     <use xlink:href="#C2_0_7bd811ee1e" x="552.17138" y="565.026101" style="fill-opacity: 0.6"/>
    </g>
    <g clip-path="url(#p8d7dc62953)">
     <use xlink:href="#C2_0_7bd811ee1e" x="541.403851" y="492.04131" style="fill-opacity: 0.6"/>
    </g>
    <g clip-path="url(#p8d7dc62953)">
     <use xlink:href="#C2_0_7bd811ee1e" x="568.480222" y="418.824082" style="fill-opacity: 0.6"/>
    </g>
    <g clip-path="url(#p8d7dc62953)">
     <use xlink:href="#C2_0_7bd811ee1e" x="566.983329" y="583.853389" style="fill-opacity: 0.6"/>
    </g>
    <g clip-path="url(#p8d7dc62953)">
     <use xlink:href="#C2_0_7bd811ee1e" x="542.523906" y="543.874456" style="fill-opacity: 0.6"/>
    </g>
    <g clip-path="url(#p8d7dc62953)">
     <use xlink:href="#C2_0_7bd811ee1e" x="539.728648" y="560.842262" style="fill-opacity: 0.6"/>
    </g>
    <g clip-path="url(#p8d7dc62953)">
     <use xlink:href="#C2_0_7bd811ee1e" x="552.780467" y="181.739725" style="fill-opacity: 0.6"/>
    </g>
    <g clip-path="url(#p8d7dc62953)">
     <use xlink:href="#C2_0_7bd811ee1e" x="547.611924" y="370.012597" style="fill-opacity: 0.6"/>
    </g>
    <g clip-path="url(#p8d7dc62953)">
     <use xlink:href="#C2_0_7bd811ee1e" x="561.39024" y="567.582894" style="fill-opacity: 0.6"/>
    </g>
    <g clip-path="url(#p8d7dc62953)">
     <use xlink:href="#C2_0_7bd811ee1e" x="566.052254" y="536.668956" style="fill-opacity: 0.6"/>
    </g>
    <g clip-path="url(#p8d7dc62953)">
     <use xlink:href="#C2_0_7bd811ee1e" x="540.097918" y="550.382658" style="fill-opacity: 0.6"/>
    </g>
    <g clip-path="url(#p8d7dc62953)">
     <use xlink:href="#C2_0_7bd811ee1e" x="557.559298" y="592.685944" style="fill-opacity: 0.6"/>
    </g>
    <g clip-path="url(#p8d7dc62953)">
     <use xlink:href="#C2_0_7bd811ee1e" x="570.657654" y="518.306535" style="fill-opacity: 0.6"/>
    </g>
    <g clip-path="url(#p8d7dc62953)">
     <use xlink:href="#C2_0_7bd811ee1e" x="561.017791" y="428.121508" style="fill-opacity: 0.6"/>
    </g>
   </g>
   <g id="text_11">
    <!-- ns -->
    <g transform="translate(270.226562 259.633736)scale(0.1 -0.1)">
     <use xlink:href="#DejaVuSans-6e"/>
     <use xlink:href="#DejaVuSans-73" x="63.378906"/>
    </g>
   </g>
   <g id="text_12">
    <!-- ns -->
    <g transform="translate(456.226562 141.091558)scale(0.1 -0.1)">
     <use xlink:href="#DejaVuSans-6e"/>
     <use xlink:href="#DejaVuSans-73" x="63.378906"/>
    </g>
   </g>
   <g id="text_13">
    <!-- ns -->
    <g transform="translate(363.226562 113.385149)scale(0.1 -0.1)">
     <use xlink:href="#DejaVuSans-6e"/>
     <use xlink:href="#DejaVuSans-73" x="63.378906"/>
    </g>
   </g>
  </g>
 </g>
 <defs>
  <clipPath id="p8d7dc62953">
   <rect x="90" y="86.4" width="558" height="543.6"/>
  </clipPath>
 </defs>
</svg>
