<?xml version="1.0" encoding="utf-8" standalone="no"?>
<!DOCTYPE svg PUBLIC "-//W3C//DTD SVG 1.1//EN"
  "http://www.w3.org/Graphics/SVG/1.1/DTD/svg11.dtd">
<svg xmlns:xlink="http://www.w3.org/1999/xlink" width="720pt" height="720pt" viewBox="0 0 720 720" xmlns="http://www.w3.org/2000/svg" version="1.1">
 <metadata>
  <rdf:RDF xmlns:dc="http://purl.org/dc/elements/1.1/" xmlns:cc="http://creativecommons.org/ns#" xmlns:rdf="http://www.w3.org/1999/02/22-rdf-syntax-ns#">
   <cc:Work>
    <dc:type rdf:resource="http://purl.org/dc/dcmitype/StillImage"/>
    <dc:date>2022-08-24T14:28:15.453400</dc:date>
    <dc:format>image/svg+xml</dc:format>
    <dc:creator>
     <cc:Agent>
      <dc:title>Matplotlib v3.5.1, https://matplotlib.org/</dc:title>
     </cc:Agent>
    </dc:creator>
   </cc:Work>
  </rdf:RDF>
 </metadata>
 <defs>
  <style type="text/css">*{stroke-linejoin: round; stroke-linecap: butt}</style>
 </defs>
 <g id="figure_1">
  <g id="patch_1">
   <path d="M 0 720 
L 720 720 
L 720 0 
L 0 0 
z
" style="fill: #ffffff"/>
  </g>
  <g id="axes_1">
   <g id="patch_2">
    <path d="M 90 630 
L 648 630 
L 648 86.4 
L 90 86.4 
z
" style="fill: #e5e5e5"/>
   </g>
   <g id="matplotlib.axis_1">
    <g id="xtick_1">
     <g id="line2d_1">
      <path d="M 106.166608 630 
L 106.166608 86.4 
" clip-path="url(#p07800d8b35)" style="fill: none; stroke: #ffffff; stroke-width: 0.8; stroke-linecap: square"/>
     </g>
     <g id="line2d_2">
      <defs>
       <path id="mb2d8ee9822" d="M 0 0 
L 0 3.5 
" style="stroke: #555555; stroke-width: 0.8"/>
      </defs>
      <g>
       <use xlink:href="#mb2d8ee9822" x="106.166608" y="630" style="fill: #555555; stroke: #555555; stroke-width: 0.8"/>
      </g>
     </g>
     <g id="text_1">
      <!-- 0 -->
      <g style="fill: #555555" transform="translate(102.985358 644.598438)scale(0.1 -0.1)">
       <defs>
        <path id="DejaVuSans-30" d="M 2034 4250 
Q 1547 4250 1301 3770 
Q 1056 3291 1056 2328 
Q 1056 1369 1301 889 
Q 1547 409 2034 409 
Q 2525 409 2770 889 
Q 3016 1369 3016 2328 
Q 3016 3291 2770 3770 
Q 2525 4250 2034 4250 
z
M 2034 4750 
Q 2819 4750 3233 4129 
Q 3647 3509 3647 2328 
Q 3647 1150 3233 529 
Q 2819 -91 2034 -91 
Q 1250 -91 836 529 
Q 422 1150 422 2328 
Q 422 3509 836 4129 
Q 1250 4750 2034 4750 
z
" transform="scale(0.015625)"/>
       </defs>
       <use xlink:href="#DejaVuSans-30"/>
      </g>
     </g>
    </g>
    <g id="xtick_2">
     <g id="line2d_3">
      <path d="M 175.213367 630 
L 175.213367 86.4 
" clip-path="url(#p07800d8b35)" style="fill: none; stroke: #ffffff; stroke-width: 0.8; stroke-linecap: square"/>
     </g>
     <g id="line2d_4">
      <g>
       <use xlink:href="#mb2d8ee9822" x="175.213367" y="630" style="fill: #555555; stroke: #555555; stroke-width: 0.8"/>
      </g>
     </g>
     <g id="text_2">
      <!-- 50 -->
      <g style="fill: #555555" transform="translate(168.850867 644.598438)scale(0.1 -0.1)">
       <defs>
        <path id="DejaVuSans-35" d="M 691 4666 
L 3169 4666 
L 3169 4134 
L 1269 4134 
L 1269 2991 
Q 1406 3038 1543 3061 
Q 1681 3084 1819 3084 
Q 2600 3084 3056 2656 
Q 3513 2228 3513 1497 
Q 3513 744 3044 326 
Q 2575 -91 1722 -91 
Q 1428 -91 1123 -41 
Q 819 9 494 109 
L 494 744 
Q 775 591 1075 516 
Q 1375 441 1709 441 
Q 2250 441 2565 725 
Q 2881 1009 2881 1497 
Q 2881 1984 2565 2268 
Q 2250 2553 1709 2553 
Q 1456 2553 1204 2497 
Q 953 2441 691 2322 
L 691 4666 
z
" transform="scale(0.015625)"/>
       </defs>
       <use xlink:href="#DejaVuSans-35"/>
       <use xlink:href="#DejaVuSans-30" x="63.623047"/>
      </g>
     </g>
    </g>
    <g id="xtick_3">
     <g id="line2d_5">
      <path d="M 244.260126 630 
L 244.260126 86.4 
" clip-path="url(#p07800d8b35)" style="fill: none; stroke: #ffffff; stroke-width: 0.8; stroke-linecap: square"/>
     </g>
     <g id="line2d_6">
      <g>
       <use xlink:href="#mb2d8ee9822" x="244.260126" y="630" style="fill: #555555; stroke: #555555; stroke-width: 0.8"/>
      </g>
     </g>
     <g id="text_3">
      <!-- 100 -->
      <g style="fill: #555555" transform="translate(234.716376 644.598438)scale(0.1 -0.1)">
       <defs>
        <path id="DejaVuSans-31" d="M 794 531 
L 1825 531 
L 1825 4091 
L 703 3866 
L 703 4441 
L 1819 4666 
L 2450 4666 
L 2450 531 
L 3481 531 
L 3481 0 
L 794 0 
L 794 531 
z
" transform="scale(0.015625)"/>
       </defs>
       <use xlink:href="#DejaVuSans-31"/>
       <use xlink:href="#DejaVuSans-30" x="63.623047"/>
       <use xlink:href="#DejaVuSans-30" x="127.246094"/>
      </g>
     </g>
    </g>
    <g id="xtick_4">
     <g id="line2d_7">
      <path d="M 313.306885 630 
L 313.306885 86.4 
" clip-path="url(#p07800d8b35)" style="fill: none; stroke: #ffffff; stroke-width: 0.8; stroke-linecap: square"/>
     </g>
     <g id="line2d_8">
      <g>
       <use xlink:href="#mb2d8ee9822" x="313.306885" y="630" style="fill: #555555; stroke: #555555; stroke-width: 0.8"/>
      </g>
     </g>
     <g id="text_4">
      <!-- 150 -->
      <g style="fill: #555555" transform="translate(303.763135 644.598438)scale(0.1 -0.1)">
       <use xlink:href="#DejaVuSans-31"/>
       <use xlink:href="#DejaVuSans-35" x="63.623047"/>
       <use xlink:href="#DejaVuSans-30" x="127.246094"/>
      </g>
     </g>
    </g>
    <g id="xtick_5">
     <g id="line2d_9">
      <path d="M 382.353643 630 
L 382.353643 86.4 
" clip-path="url(#p07800d8b35)" style="fill: none; stroke: #ffffff; stroke-width: 0.8; stroke-linecap: square"/>
     </g>
     <g id="line2d_10">
      <g>
       <use xlink:href="#mb2d8ee9822" x="382.353643" y="630" style="fill: #555555; stroke: #555555; stroke-width: 0.8"/>
      </g>
     </g>
     <g id="text_5">
      <!-- 200 -->
      <g style="fill: #555555" transform="translate(372.809893 644.598438)scale(0.1 -0.1)">
       <defs>
        <path id="DejaVuSans-32" d="M 1228 531 
L 3431 531 
L 3431 0 
L 469 0 
L 469 531 
Q 828 903 1448 1529 
Q 2069 2156 2228 2338 
Q 2531 2678 2651 2914 
Q 2772 3150 2772 3378 
Q 2772 3750 2511 3984 
Q 2250 4219 1831 4219 
Q 1534 4219 1204 4116 
Q 875 4013 500 3803 
L 500 4441 
Q 881 4594 1212 4672 
Q 1544 4750 1819 4750 
Q 2544 4750 2975 4387 
Q 3406 4025 3406 3419 
Q 3406 3131 3298 2873 
Q 3191 2616 2906 2266 
Q 2828 2175 2409 1742 
Q 1991 1309 1228 531 
z
" transform="scale(0.015625)"/>
       </defs>
       <use xlink:href="#DejaVuSans-32"/>
       <use xlink:href="#DejaVuSans-30" x="63.623047"/>
       <use xlink:href="#DejaVuSans-30" x="127.246094"/>
      </g>
     </g>
    </g>
    <g id="xtick_6">
     <g id="line2d_11">
      <path d="M 451.400402 630 
L 451.400402 86.4 
" clip-path="url(#p07800d8b35)" style="fill: none; stroke: #ffffff; stroke-width: 0.8; stroke-linecap: square"/>
     </g>
     <g id="line2d_12">
      <g>
       <use xlink:href="#mb2d8ee9822" x="451.400402" y="630" style="fill: #555555; stroke: #555555; stroke-width: 0.8"/>
      </g>
     </g>
     <g id="text_6">
      <!-- 250 -->
      <g style="fill: #555555" transform="translate(441.856652 644.598438)scale(0.1 -0.1)">
       <use xlink:href="#DejaVuSans-32"/>
       <use xlink:href="#DejaVuSans-35" x="63.623047"/>
       <use xlink:href="#DejaVuSans-30" x="127.246094"/>
      </g>
     </g>
    </g>
    <g id="xtick_7">
     <g id="line2d_13">
      <path d="M 520.447161 630 
L 520.447161 86.4 
" clip-path="url(#p07800d8b35)" style="fill: none; stroke: #ffffff; stroke-width: 0.8; stroke-linecap: square"/>
     </g>
     <g id="line2d_14">
      <g>
       <use xlink:href="#mb2d8ee9822" x="520.447161" y="630" style="fill: #555555; stroke: #555555; stroke-width: 0.8"/>
      </g>
     </g>
     <g id="text_7">
      <!-- 300 -->
      <g style="fill: #555555" transform="translate(510.903411 644.598438)scale(0.1 -0.1)">
       <defs>
        <path id="DejaVuSans-33" d="M 2597 2516 
Q 3050 2419 3304 2112 
Q 3559 1806 3559 1356 
Q 3559 666 3084 287 
Q 2609 -91 1734 -91 
Q 1441 -91 1130 -33 
Q 819 25 488 141 
L 488 750 
Q 750 597 1062 519 
Q 1375 441 1716 441 
Q 2309 441 2620 675 
Q 2931 909 2931 1356 
Q 2931 1769 2642 2001 
Q 2353 2234 1838 2234 
L 1294 2234 
L 1294 2753 
L 1863 2753 
Q 2328 2753 2575 2939 
Q 2822 3125 2822 3475 
Q 2822 3834 2567 4026 
Q 2313 4219 1838 4219 
Q 1578 4219 1281 4162 
Q 984 4106 628 3988 
L 628 4550 
Q 988 4650 1302 4700 
Q 1616 4750 1894 4750 
Q 2613 4750 3031 4423 
Q 3450 4097 3450 3541 
Q 3450 3153 3228 2886 
Q 3006 2619 2597 2516 
z
" transform="scale(0.015625)"/>
       </defs>
       <use xlink:href="#DejaVuSans-33"/>
       <use xlink:href="#DejaVuSans-30" x="63.623047"/>
       <use xlink:href="#DejaVuSans-30" x="127.246094"/>
      </g>
     </g>
    </g>
    <g id="xtick_8">
     <g id="line2d_15">
      <path d="M 589.493919 630 
L 589.493919 86.4 
" clip-path="url(#p07800d8b35)" style="fill: none; stroke: #ffffff; stroke-width: 0.8; stroke-linecap: square"/>
     </g>
     <g id="line2d_16">
      <g>
       <use xlink:href="#mb2d8ee9822" x="589.493919" y="630" style="fill: #555555; stroke: #555555; stroke-width: 0.8"/>
      </g>
     </g>
     <g id="text_8">
      <!-- 350 -->
      <g style="fill: #555555" transform="translate(579.950169 644.598438)scale(0.1 -0.1)">
       <use xlink:href="#DejaVuSans-33"/>
       <use xlink:href="#DejaVuSans-35" x="63.623047"/>
       <use xlink:href="#DejaVuSans-30" x="127.246094"/>
      </g>
     </g>
    </g>
    <g id="text_9">
     <!-- DNA concentration (ng/$\mu$l) -->
     <g style="fill: #555555" transform="translate(277.51 661.318125)scale(0.14 -0.14)">
      <defs>
       <path id="DejaVuSans-44" d="M 1259 4147 
L 1259 519 
L 2022 519 
Q 2988 519 3436 956 
Q 3884 1394 3884 2338 
Q 3884 3275 3436 3711 
Q 2988 4147 2022 4147 
L 1259 4147 
z
M 628 4666 
L 1925 4666 
Q 3281 4666 3915 4102 
Q 4550 3538 4550 2338 
Q 4550 1131 3912 565 
Q 3275 0 1925 0 
L 628 0 
L 628 4666 
z
" transform="scale(0.015625)"/>
       <path id="DejaVuSans-4e" d="M 628 4666 
L 1478 4666 
L 3547 763 
L 3547 4666 
L 4159 4666 
L 4159 0 
L 3309 0 
L 1241 3903 
L 1241 0 
L 628 0 
L 628 4666 
z
" transform="scale(0.015625)"/>
       <path id="DejaVuSans-41" d="M 2188 4044 
L 1331 1722 
L 3047 1722 
L 2188 4044 
z
M 1831 4666 
L 2547 4666 
L 4325 0 
L 3669 0 
L 3244 1197 
L 1141 1197 
L 716 0 
L 50 0 
L 1831 4666 
z
" transform="scale(0.015625)"/>
       <path id="DejaVuSans-20" transform="scale(0.015625)"/>
       <path id="DejaVuSans-63" d="M 3122 3366 
L 3122 2828 
Q 2878 2963 2633 3030 
Q 2388 3097 2138 3097 
Q 1578 3097 1268 2742 
Q 959 2388 959 1747 
Q 959 1106 1268 751 
Q 1578 397 2138 397 
Q 2388 397 2633 464 
Q 2878 531 3122 666 
L 3122 134 
Q 2881 22 2623 -34 
Q 2366 -91 2075 -91 
Q 1284 -91 818 406 
Q 353 903 353 1747 
Q 353 2603 823 3093 
Q 1294 3584 2113 3584 
Q 2378 3584 2631 3529 
Q 2884 3475 3122 3366 
z
" transform="scale(0.015625)"/>
       <path id="DejaVuSans-6f" d="M 1959 3097 
Q 1497 3097 1228 2736 
Q 959 2375 959 1747 
Q 959 1119 1226 758 
Q 1494 397 1959 397 
Q 2419 397 2687 759 
Q 2956 1122 2956 1747 
Q 2956 2369 2687 2733 
Q 2419 3097 1959 3097 
z
M 1959 3584 
Q 2709 3584 3137 3096 
Q 3566 2609 3566 1747 
Q 3566 888 3137 398 
Q 2709 -91 1959 -91 
Q 1206 -91 779 398 
Q 353 888 353 1747 
Q 353 2609 779 3096 
Q 1206 3584 1959 3584 
z
" transform="scale(0.015625)"/>
       <path id="DejaVuSans-6e" d="M 3513 2113 
L 3513 0 
L 2938 0 
L 2938 2094 
Q 2938 2591 2744 2837 
Q 2550 3084 2163 3084 
Q 1697 3084 1428 2787 
Q 1159 2491 1159 1978 
L 1159 0 
L 581 0 
L 581 3500 
L 1159 3500 
L 1159 2956 
Q 1366 3272 1645 3428 
Q 1925 3584 2291 3584 
Q 2894 3584 3203 3211 
Q 3513 2838 3513 2113 
z
" transform="scale(0.015625)"/>
       <path id="DejaVuSans-65" d="M 3597 1894 
L 3597 1613 
L 953 1613 
Q 991 1019 1311 708 
Q 1631 397 2203 397 
Q 2534 397 2845 478 
Q 3156 559 3463 722 
L 3463 178 
Q 3153 47 2828 -22 
Q 2503 -91 2169 -91 
Q 1331 -91 842 396 
Q 353 884 353 1716 
Q 353 2575 817 3079 
Q 1281 3584 2069 3584 
Q 2775 3584 3186 3129 
Q 3597 2675 3597 1894 
z
M 3022 2063 
Q 3016 2534 2758 2815 
Q 2500 3097 2075 3097 
Q 1594 3097 1305 2825 
Q 1016 2553 972 2059 
L 3022 2063 
z
" transform="scale(0.015625)"/>
       <path id="DejaVuSans-74" d="M 1172 4494 
L 1172 3500 
L 2356 3500 
L 2356 3053 
L 1172 3053 
L 1172 1153 
Q 1172 725 1289 603 
Q 1406 481 1766 481 
L 2356 481 
L 2356 0 
L 1766 0 
Q 1100 0 847 248 
Q 594 497 594 1153 
L 594 3053 
L 172 3053 
L 172 3500 
L 594 3500 
L 594 4494 
L 1172 4494 
z
" transform="scale(0.015625)"/>
       <path id="DejaVuSans-72" d="M 2631 2963 
Q 2534 3019 2420 3045 
Q 2306 3072 2169 3072 
Q 1681 3072 1420 2755 
Q 1159 2438 1159 1844 
L 1159 0 
L 581 0 
L 581 3500 
L 1159 3500 
L 1159 2956 
Q 1341 3275 1631 3429 
Q 1922 3584 2338 3584 
Q 2397 3584 2469 3576 
Q 2541 3569 2628 3553 
L 2631 2963 
z
" transform="scale(0.015625)"/>
       <path id="DejaVuSans-61" d="M 2194 1759 
Q 1497 1759 1228 1600 
Q 959 1441 959 1056 
Q 959 750 1161 570 
Q 1363 391 1709 391 
Q 2188 391 2477 730 
Q 2766 1069 2766 1631 
L 2766 1759 
L 2194 1759 
z
M 3341 1997 
L 3341 0 
L 2766 0 
L 2766 531 
Q 2569 213 2275 61 
Q 1981 -91 1556 -91 
Q 1019 -91 701 211 
Q 384 513 384 1019 
Q 384 1609 779 1909 
Q 1175 2209 1959 2209 
L 2766 2209 
L 2766 2266 
Q 2766 2663 2505 2880 
Q 2244 3097 1772 3097 
Q 1472 3097 1187 3025 
Q 903 2953 641 2809 
L 641 3341 
Q 956 3463 1253 3523 
Q 1550 3584 1831 3584 
Q 2591 3584 2966 3190 
Q 3341 2797 3341 1997 
z
" transform="scale(0.015625)"/>
       <path id="DejaVuSans-69" d="M 603 3500 
L 1178 3500 
L 1178 0 
L 603 0 
L 603 3500 
z
M 603 4863 
L 1178 4863 
L 1178 4134 
L 603 4134 
L 603 4863 
z
" transform="scale(0.015625)"/>
       <path id="DejaVuSans-28" d="M 1984 4856 
Q 1566 4138 1362 3434 
Q 1159 2731 1159 2009 
Q 1159 1288 1364 580 
Q 1569 -128 1984 -844 
L 1484 -844 
Q 1016 -109 783 600 
Q 550 1309 550 2009 
Q 550 2706 781 3412 
Q 1013 4119 1484 4856 
L 1984 4856 
z
" transform="scale(0.015625)"/>
       <path id="DejaVuSans-67" d="M 2906 1791 
Q 2906 2416 2648 2759 
Q 2391 3103 1925 3103 
Q 1463 3103 1205 2759 
Q 947 2416 947 1791 
Q 947 1169 1205 825 
Q 1463 481 1925 481 
Q 2391 481 2648 825 
Q 2906 1169 2906 1791 
z
M 3481 434 
Q 3481 -459 3084 -895 
Q 2688 -1331 1869 -1331 
Q 1566 -1331 1297 -1286 
Q 1028 -1241 775 -1147 
L 775 -588 
Q 1028 -725 1275 -790 
Q 1522 -856 1778 -856 
Q 2344 -856 2625 -561 
Q 2906 -266 2906 331 
L 2906 616 
Q 2728 306 2450 153 
Q 2172 0 1784 0 
Q 1141 0 747 490 
Q 353 981 353 1791 
Q 353 2603 747 3093 
Q 1141 3584 1784 3584 
Q 2172 3584 2450 3431 
Q 2728 3278 2906 2969 
L 2906 3500 
L 3481 3500 
L 3481 434 
z
" transform="scale(0.015625)"/>
       <path id="DejaVuSans-2f" d="M 1625 4666 
L 2156 4666 
L 531 -594 
L 0 -594 
L 1625 4666 
z
" transform="scale(0.015625)"/>
       <path id="DejaVuSans-Oblique-3bc" d="M -84 -1331 
L 856 3500 
L 1434 3500 
L 1009 1322 
Q 997 1256 987 1175 
Q 978 1094 978 1013 
Q 978 722 1161 565 
Q 1344 409 1684 409 
Q 2147 409 2431 671 
Q 2716 934 2816 1459 
L 3213 3500 
L 3788 3500 
L 3266 809 
Q 3253 750 3248 706 
Q 3244 663 3244 628 
Q 3244 531 3283 486 
Q 3322 441 3406 441 
Q 3438 441 3492 456 
Q 3547 472 3647 513 
L 3559 50 
Q 3422 -19 3297 -55 
Q 3172 -91 3053 -91 
Q 2847 -91 2730 40 
Q 2613 172 2613 403 
Q 2438 153 2195 31 
Q 1953 -91 1625 -91 
Q 1334 -91 1117 43 
Q 900 178 831 397 
L 494 -1331 
L -84 -1331 
z
" transform="scale(0.015625)"/>
       <path id="DejaVuSans-6c" d="M 603 4863 
L 1178 4863 
L 1178 0 
L 603 0 
L 603 4863 
z
" transform="scale(0.015625)"/>
       <path id="DejaVuSans-29" d="M 513 4856 
L 1013 4856 
Q 1481 4119 1714 3412 
Q 1947 2706 1947 2009 
Q 1947 1309 1714 600 
Q 1481 -109 1013 -844 
L 513 -844 
Q 928 -128 1133 580 
Q 1338 1288 1338 2009 
Q 1338 2731 1133 3434 
Q 928 4138 513 4856 
z
" transform="scale(0.015625)"/>
      </defs>
      <use xlink:href="#DejaVuSans-44" transform="translate(0 0.015625)"/>
      <use xlink:href="#DejaVuSans-4e" transform="translate(77.001953 0.015625)"/>
      <use xlink:href="#DejaVuSans-41" transform="translate(151.806641 0.015625)"/>
      <use xlink:href="#DejaVuSans-20" transform="translate(220.214844 0.015625)"/>
      <use xlink:href="#DejaVuSans-63" transform="translate(252.001953 0.015625)"/>
      <use xlink:href="#DejaVuSans-6f" transform="translate(306.982422 0.015625)"/>
      <use xlink:href="#DejaVuSans-6e" transform="translate(368.164062 0.015625)"/>
      <use xlink:href="#DejaVuSans-63" transform="translate(431.542969 0.015625)"/>
      <use xlink:href="#DejaVuSans-65" transform="translate(486.523438 0.015625)"/>
      <use xlink:href="#DejaVuSans-6e" transform="translate(548.046875 0.015625)"/>
      <use xlink:href="#DejaVuSans-74" transform="translate(611.425781 0.015625)"/>
      <use xlink:href="#DejaVuSans-72" transform="translate(650.634766 0.015625)"/>
      <use xlink:href="#DejaVuSans-61" transform="translate(691.748047 0.015625)"/>
      <use xlink:href="#DejaVuSans-74" transform="translate(753.027344 0.015625)"/>
      <use xlink:href="#DejaVuSans-69" transform="translate(792.236328 0.015625)"/>
      <use xlink:href="#DejaVuSans-6f" transform="translate(820.019531 0.015625)"/>
      <use xlink:href="#DejaVuSans-6e" transform="translate(881.201172 0.015625)"/>
      <use xlink:href="#DejaVuSans-20" transform="translate(944.580078 0.015625)"/>
      <use xlink:href="#DejaVuSans-28" transform="translate(976.367188 0.015625)"/>
      <use xlink:href="#DejaVuSans-6e" transform="translate(1015.380859 0.015625)"/>
      <use xlink:href="#DejaVuSans-67" transform="translate(1078.759766 0.015625)"/>
      <use xlink:href="#DejaVuSans-2f" transform="translate(1142.236328 0.015625)"/>
      <use xlink:href="#DejaVuSans-Oblique-3bc" transform="translate(1175.927734 0.015625)"/>
      <use xlink:href="#DejaVuSans-6c" transform="translate(1239.550781 0.015625)"/>
      <use xlink:href="#DejaVuSans-29" transform="translate(1267.333984 0.015625)"/>
     </g>
    </g>
   </g>
   <g id="matplotlib.axis_2">
    <g id="ytick_1">
     <g id="line2d_17">
      <path d="M 90 568.815545 
L 648 568.815545 
" clip-path="url(#p07800d8b35)" style="fill: none; stroke: #ffffff; stroke-width: 0.8; stroke-linecap: square"/>
     </g>
     <g id="line2d_18">
      <defs>
       <path id="me330fe9621" d="M 0 0 
L -3.5 0 
" style="stroke: #555555; stroke-width: 0.8"/>
      </defs>
      <g>
       <use xlink:href="#me330fe9621" x="90" y="568.815545" style="fill: #555555; stroke: #555555; stroke-width: 0.8"/>
      </g>
     </g>
     <g id="text_10">
      <!-- 0 -->
      <g style="fill: #555555" transform="translate(76.6375 572.614764)scale(0.1 -0.1)">
       <use xlink:href="#DejaVuSans-30"/>
      </g>
     </g>
    </g>
    <g id="ytick_2">
     <g id="line2d_19">
      <path d="M 90 492.083532 
L 648 492.083532 
" clip-path="url(#p07800d8b35)" style="fill: none; stroke: #ffffff; stroke-width: 0.8; stroke-linecap: square"/>
     </g>
     <g id="line2d_20">
      <g>
       <use xlink:href="#me330fe9621" x="90" y="492.083532" style="fill: #555555; stroke: #555555; stroke-width: 0.8"/>
      </g>
     </g>
     <g id="text_11">
      <!-- 20 -->
      <g style="fill: #555555" transform="translate(70.275 495.882751)scale(0.1 -0.1)">
       <use xlink:href="#DejaVuSans-32"/>
       <use xlink:href="#DejaVuSans-30" x="63.623047"/>
      </g>
     </g>
    </g>
    <g id="ytick_3">
     <g id="line2d_21">
      <path d="M 90 415.35152 
L 648 415.35152 
" clip-path="url(#p07800d8b35)" style="fill: none; stroke: #ffffff; stroke-width: 0.8; stroke-linecap: square"/>
     </g>
     <g id="line2d_22">
      <g>
       <use xlink:href="#me330fe9621" x="90" y="415.35152" style="fill: #555555; stroke: #555555; stroke-width: 0.8"/>
      </g>
     </g>
     <g id="text_12">
      <!-- 40 -->
      <g style="fill: #555555" transform="translate(70.275 419.150739)scale(0.1 -0.1)">
       <defs>
        <path id="DejaVuSans-34" d="M 2419 4116 
L 825 1625 
L 2419 1625 
L 2419 4116 
z
M 2253 4666 
L 3047 4666 
L 3047 1625 
L 3713 1625 
L 3713 1100 
L 3047 1100 
L 3047 0 
L 2419 0 
L 2419 1100 
L 313 1100 
L 313 1709 
L 2253 4666 
z
" transform="scale(0.015625)"/>
       </defs>
       <use xlink:href="#DejaVuSans-34"/>
       <use xlink:href="#DejaVuSans-30" x="63.623047"/>
      </g>
     </g>
    </g>
    <g id="ytick_4">
     <g id="line2d_23">
      <path d="M 90 338.619508 
L 648 338.619508 
" clip-path="url(#p07800d8b35)" style="fill: none; stroke: #ffffff; stroke-width: 0.8; stroke-linecap: square"/>
     </g>
     <g id="line2d_24">
      <g>
       <use xlink:href="#me330fe9621" x="90" y="338.619508" style="fill: #555555; stroke: #555555; stroke-width: 0.8"/>
      </g>
     </g>
     <g id="text_13">
      <!-- 60 -->
      <g style="fill: #555555" transform="translate(70.275 342.418726)scale(0.1 -0.1)">
       <defs>
        <path id="DejaVuSans-36" d="M 2113 2584 
Q 1688 2584 1439 2293 
Q 1191 2003 1191 1497 
Q 1191 994 1439 701 
Q 1688 409 2113 409 
Q 2538 409 2786 701 
Q 3034 994 3034 1497 
Q 3034 2003 2786 2293 
Q 2538 2584 2113 2584 
z
M 3366 4563 
L 3366 3988 
Q 3128 4100 2886 4159 
Q 2644 4219 2406 4219 
Q 1781 4219 1451 3797 
Q 1122 3375 1075 2522 
Q 1259 2794 1537 2939 
Q 1816 3084 2150 3084 
Q 2853 3084 3261 2657 
Q 3669 2231 3669 1497 
Q 3669 778 3244 343 
Q 2819 -91 2113 -91 
Q 1303 -91 875 529 
Q 447 1150 447 2328 
Q 447 3434 972 4092 
Q 1497 4750 2381 4750 
Q 2619 4750 2861 4703 
Q 3103 4656 3366 4563 
z
" transform="scale(0.015625)"/>
       </defs>
       <use xlink:href="#DejaVuSans-36"/>
       <use xlink:href="#DejaVuSans-30" x="63.623047"/>
      </g>
     </g>
    </g>
    <g id="ytick_5">
     <g id="line2d_25">
      <path d="M 90 261.887495 
L 648 261.887495 
" clip-path="url(#p07800d8b35)" style="fill: none; stroke: #ffffff; stroke-width: 0.8; stroke-linecap: square"/>
     </g>
     <g id="line2d_26">
      <g>
       <use xlink:href="#me330fe9621" x="90" y="261.887495" style="fill: #555555; stroke: #555555; stroke-width: 0.8"/>
      </g>
     </g>
     <g id="text_14">
      <!-- 80 -->
      <g style="fill: #555555" transform="translate(70.275 265.686714)scale(0.1 -0.1)">
       <defs>
        <path id="DejaVuSans-38" d="M 2034 2216 
Q 1584 2216 1326 1975 
Q 1069 1734 1069 1313 
Q 1069 891 1326 650 
Q 1584 409 2034 409 
Q 2484 409 2743 651 
Q 3003 894 3003 1313 
Q 3003 1734 2745 1975 
Q 2488 2216 2034 2216 
z
M 1403 2484 
Q 997 2584 770 2862 
Q 544 3141 544 3541 
Q 544 4100 942 4425 
Q 1341 4750 2034 4750 
Q 2731 4750 3128 4425 
Q 3525 4100 3525 3541 
Q 3525 3141 3298 2862 
Q 3072 2584 2669 2484 
Q 3125 2378 3379 2068 
Q 3634 1759 3634 1313 
Q 3634 634 3220 271 
Q 2806 -91 2034 -91 
Q 1263 -91 848 271 
Q 434 634 434 1313 
Q 434 1759 690 2068 
Q 947 2378 1403 2484 
z
M 1172 3481 
Q 1172 3119 1398 2916 
Q 1625 2713 2034 2713 
Q 2441 2713 2670 2916 
Q 2900 3119 2900 3481 
Q 2900 3844 2670 4047 
Q 2441 4250 2034 4250 
Q 1625 4250 1398 4047 
Q 1172 3844 1172 3481 
z
" transform="scale(0.015625)"/>
       </defs>
       <use xlink:href="#DejaVuSans-38"/>
       <use xlink:href="#DejaVuSans-30" x="63.623047"/>
      </g>
     </g>
    </g>
    <g id="ytick_6">
     <g id="line2d_27">
      <path d="M 90 185.155483 
L 648 185.155483 
" clip-path="url(#p07800d8b35)" style="fill: none; stroke: #ffffff; stroke-width: 0.8; stroke-linecap: square"/>
     </g>
     <g id="line2d_28">
      <g>
       <use xlink:href="#me330fe9621" x="90" y="185.155483" style="fill: #555555; stroke: #555555; stroke-width: 0.8"/>
      </g>
     </g>
     <g id="text_15">
      <!-- 100 -->
      <g style="fill: #555555" transform="translate(63.9125 188.954702)scale(0.1 -0.1)">
       <use xlink:href="#DejaVuSans-31"/>
       <use xlink:href="#DejaVuSans-30" x="63.623047"/>
       <use xlink:href="#DejaVuSans-30" x="127.246094"/>
      </g>
     </g>
    </g>
    <g id="ytick_7">
     <g id="line2d_29">
      <path d="M 90 108.42347 
L 648 108.42347 
" clip-path="url(#p07800d8b35)" style="fill: none; stroke: #ffffff; stroke-width: 0.8; stroke-linecap: square"/>
     </g>
     <g id="line2d_30">
      <g>
       <use xlink:href="#me330fe9621" x="90" y="108.42347" style="fill: #555555; stroke: #555555; stroke-width: 0.8"/>
      </g>
     </g>
     <g id="text_16">
      <!-- 120 -->
      <g style="fill: #555555" transform="translate(63.9125 112.222689)scale(0.1 -0.1)">
       <use xlink:href="#DejaVuSans-31"/>
       <use xlink:href="#DejaVuSans-32" x="63.623047"/>
       <use xlink:href="#DejaVuSans-30" x="127.246094"/>
      </g>
     </g>
    </g>
    <g id="text_17">
     <!-- MTB read depth (mean) -->
     <g style="fill: #555555" transform="translate(57.000937 441.442031)rotate(-90)scale(0.14 -0.14)">
      <defs>
       <path id="DejaVuSans-4d" d="M 628 4666 
L 1569 4666 
L 2759 1491 
L 3956 4666 
L 4897 4666 
L 4897 0 
L 4281 0 
L 4281 4097 
L 3078 897 
L 2444 897 
L 1241 4097 
L 1241 0 
L 628 0 
L 628 4666 
z
" transform="scale(0.015625)"/>
       <path id="DejaVuSans-54" d="M -19 4666 
L 3928 4666 
L 3928 4134 
L 2272 4134 
L 2272 0 
L 1638 0 
L 1638 4134 
L -19 4134 
L -19 4666 
z
" transform="scale(0.015625)"/>
       <path id="DejaVuSans-42" d="M 1259 2228 
L 1259 519 
L 2272 519 
Q 2781 519 3026 730 
Q 3272 941 3272 1375 
Q 3272 1813 3026 2020 
Q 2781 2228 2272 2228 
L 1259 2228 
z
M 1259 4147 
L 1259 2741 
L 2194 2741 
Q 2656 2741 2882 2914 
Q 3109 3088 3109 3444 
Q 3109 3797 2882 3972 
Q 2656 4147 2194 4147 
L 1259 4147 
z
M 628 4666 
L 2241 4666 
Q 2963 4666 3353 4366 
Q 3744 4066 3744 3513 
Q 3744 3084 3544 2831 
Q 3344 2578 2956 2516 
Q 3422 2416 3680 2098 
Q 3938 1781 3938 1306 
Q 3938 681 3513 340 
Q 3088 0 2303 0 
L 628 0 
L 628 4666 
z
" transform="scale(0.015625)"/>
       <path id="DejaVuSans-64" d="M 2906 2969 
L 2906 4863 
L 3481 4863 
L 3481 0 
L 2906 0 
L 2906 525 
Q 2725 213 2448 61 
Q 2172 -91 1784 -91 
Q 1150 -91 751 415 
Q 353 922 353 1747 
Q 353 2572 751 3078 
Q 1150 3584 1784 3584 
Q 2172 3584 2448 3432 
Q 2725 3281 2906 2969 
z
M 947 1747 
Q 947 1113 1208 752 
Q 1469 391 1925 391 
Q 2381 391 2643 752 
Q 2906 1113 2906 1747 
Q 2906 2381 2643 2742 
Q 2381 3103 1925 3103 
Q 1469 3103 1208 2742 
Q 947 2381 947 1747 
z
" transform="scale(0.015625)"/>
       <path id="DejaVuSans-70" d="M 1159 525 
L 1159 -1331 
L 581 -1331 
L 581 3500 
L 1159 3500 
L 1159 2969 
Q 1341 3281 1617 3432 
Q 1894 3584 2278 3584 
Q 2916 3584 3314 3078 
Q 3713 2572 3713 1747 
Q 3713 922 3314 415 
Q 2916 -91 2278 -91 
Q 1894 -91 1617 61 
Q 1341 213 1159 525 
z
M 3116 1747 
Q 3116 2381 2855 2742 
Q 2594 3103 2138 3103 
Q 1681 3103 1420 2742 
Q 1159 2381 1159 1747 
Q 1159 1113 1420 752 
Q 1681 391 2138 391 
Q 2594 391 2855 752 
Q 3116 1113 3116 1747 
z
" transform="scale(0.015625)"/>
       <path id="DejaVuSans-68" d="M 3513 2113 
L 3513 0 
L 2938 0 
L 2938 2094 
Q 2938 2591 2744 2837 
Q 2550 3084 2163 3084 
Q 1697 3084 1428 2787 
Q 1159 2491 1159 1978 
L 1159 0 
L 581 0 
L 581 4863 
L 1159 4863 
L 1159 2956 
Q 1366 3272 1645 3428 
Q 1925 3584 2291 3584 
Q 2894 3584 3203 3211 
Q 3513 2838 3513 2113 
z
" transform="scale(0.015625)"/>
       <path id="DejaVuSans-6d" d="M 3328 2828 
Q 3544 3216 3844 3400 
Q 4144 3584 4550 3584 
Q 5097 3584 5394 3201 
Q 5691 2819 5691 2113 
L 5691 0 
L 5113 0 
L 5113 2094 
Q 5113 2597 4934 2840 
Q 4756 3084 4391 3084 
Q 3944 3084 3684 2787 
Q 3425 2491 3425 1978 
L 3425 0 
L 2847 0 
L 2847 2094 
Q 2847 2600 2669 2842 
Q 2491 3084 2119 3084 
Q 1678 3084 1418 2786 
Q 1159 2488 1159 1978 
L 1159 0 
L 581 0 
L 581 3500 
L 1159 3500 
L 1159 2956 
Q 1356 3278 1631 3431 
Q 1906 3584 2284 3584 
Q 2666 3584 2933 3390 
Q 3200 3197 3328 2828 
z
" transform="scale(0.015625)"/>
      </defs>
      <use xlink:href="#DejaVuSans-4d"/>
      <use xlink:href="#DejaVuSans-54" x="86.279297"/>
      <use xlink:href="#DejaVuSans-42" x="147.363281"/>
      <use xlink:href="#DejaVuSans-20" x="215.966797"/>
      <use xlink:href="#DejaVuSans-72" x="247.753906"/>
      <use xlink:href="#DejaVuSans-65" x="286.617188"/>
      <use xlink:href="#DejaVuSans-61" x="348.140625"/>
      <use xlink:href="#DejaVuSans-64" x="409.419922"/>
      <use xlink:href="#DejaVuSans-20" x="472.896484"/>
      <use xlink:href="#DejaVuSans-64" x="504.683594"/>
      <use xlink:href="#DejaVuSans-65" x="568.160156"/>
      <use xlink:href="#DejaVuSans-70" x="629.683594"/>
      <use xlink:href="#DejaVuSans-74" x="693.160156"/>
      <use xlink:href="#DejaVuSans-68" x="732.369141"/>
      <use xlink:href="#DejaVuSans-20" x="795.748047"/>
      <use xlink:href="#DejaVuSans-28" x="827.535156"/>
      <use xlink:href="#DejaVuSans-6d" x="866.548828"/>
      <use xlink:href="#DejaVuSans-65" x="963.960938"/>
      <use xlink:href="#DejaVuSans-61" x="1025.484375"/>
      <use xlink:href="#DejaVuSans-6e" x="1086.763672"/>
      <use xlink:href="#DejaVuSans-29" x="1150.142578"/>
     </g>
    </g>
   </g>
   <g id="PathCollection_1">
    <defs>
     <path id="m04a3c52dd5" d="M 0 3 
C 0.795609 3 1.55874 2.683901 2.12132 2.12132 
C 2.683901 1.55874 3 0.795609 3 0 
C 3 -0.795609 2.683901 -1.55874 2.12132 -2.12132 
C 1.55874 -2.683901 0.795609 -3 0 -3 
C -0.795609 -3 -1.55874 -2.683901 -2.12132 -2.12132 
C -2.683901 -1.55874 -3 -0.795609 -3 0 
C -3 0.795609 -2.683901 1.55874 -2.12132 2.12132 
C -1.55874 2.683901 -0.795609 3 0 3 
z
" style="stroke: #e24a33; stroke-opacity: 0.8"/>
    </defs>
    <g clip-path="url(#p07800d8b35)">
     <use xlink:href="#m04a3c52dd5" x="182.118043" y="568.048225" style="fill: #e24a33; fill-opacity: 0.8; stroke: #e24a33; stroke-opacity: 0.8"/>
     <use xlink:href="#m04a3c52dd5" x="182.118043" y="565.746264" style="fill: #e24a33; fill-opacity: 0.8; stroke: #e24a33; stroke-opacity: 0.8"/>
     <use xlink:href="#m04a3c52dd5" x="174.384809" y="568.048225" style="fill: #e24a33; fill-opacity: 0.8; stroke: #e24a33; stroke-opacity: 0.8"/>
     <use xlink:href="#m04a3c52dd5" x="174.384809" y="545.795941" style="fill: #e24a33; fill-opacity: 0.8; stroke: #e24a33; stroke-opacity: 0.8"/>
     <use xlink:href="#m04a3c52dd5" x="263.593218" y="543.493981" style="fill: #e24a33; fill-opacity: 0.8; stroke: #e24a33; stroke-opacity: 0.8"/>
     <use xlink:href="#m04a3c52dd5" x="263.593218" y="564.595284" style="fill: #e24a33; fill-opacity: 0.8; stroke: #e24a33; stroke-opacity: 0.8"/>
     <use xlink:href="#m04a3c52dd5" x="263.593218" y="546.946922" style="fill: #e24a33; fill-opacity: 0.8; stroke: #e24a33; stroke-opacity: 0.8"/>
     <use xlink:href="#m04a3c52dd5" x="173.832432" y="568.431885" style="fill: #e24a33; fill-opacity: 0.8; stroke: #e24a33; stroke-opacity: 0.8"/>
     <use xlink:href="#m04a3c52dd5" x="173.832432" y="567.280905" style="fill: #e24a33; fill-opacity: 0.8; stroke: #e24a33; stroke-opacity: 0.8"/>
     <use xlink:href="#m04a3c52dd5" x="244.260126" y="560.375024" style="fill: #e24a33; fill-opacity: 0.8; stroke: #e24a33; stroke-opacity: 0.8"/>
     <use xlink:href="#m04a3c52dd5" x="244.260126" y="566.129924" style="fill: #e24a33; fill-opacity: 0.8; stroke: #e24a33; stroke-opacity: 0.8"/>
     <use xlink:href="#m04a3c52dd5" x="244.260126" y="555.003783" style="fill: #e24a33; fill-opacity: 0.8; stroke: #e24a33; stroke-opacity: 0.8"/>
     <use xlink:href="#m04a3c52dd5" x="119.97596" y="568.431885" style="fill: #e24a33; fill-opacity: 0.8; stroke: #e24a33; stroke-opacity: 0.8"/>
     <use xlink:href="#m04a3c52dd5" x="119.97596" y="566.129924" style="fill: #e24a33; fill-opacity: 0.8; stroke: #e24a33; stroke-opacity: 0.8"/>
     <use xlink:href="#m04a3c52dd5" x="195.927395" y="567.664565" style="fill: #e24a33; fill-opacity: 0.8; stroke: #e24a33; stroke-opacity: 0.8"/>
     <use xlink:href="#m04a3c52dd5" x="195.927395" y="566.129924" style="fill: #e24a33; fill-opacity: 0.8; stroke: #e24a33; stroke-opacity: 0.8"/>
     <use xlink:href="#m04a3c52dd5" x="151.737469" y="554.620123" style="fill: #e24a33; fill-opacity: 0.8; stroke: #e24a33; stroke-opacity: 0.8"/>
     <use xlink:href="#m04a3c52dd5" x="151.737469" y="565.746264" style="fill: #e24a33; fill-opacity: 0.8; stroke: #e24a33; stroke-opacity: 0.8"/>
     <use xlink:href="#m04a3c52dd5" x="182.118043" y="568.431885" style="fill: #e24a33; fill-opacity: 0.8; stroke: #e24a33; stroke-opacity: 0.8"/>
     <use xlink:href="#m04a3c52dd5" x="182.118043" y="568.431885" style="fill: #e24a33; fill-opacity: 0.8; stroke: #e24a33; stroke-opacity: 0.8"/>
     <use xlink:href="#m04a3c52dd5" x="180.737108" y="557.689403" style="fill: #e24a33; fill-opacity: 0.8; stroke: #e24a33; stroke-opacity: 0.8"/>
     <use xlink:href="#m04a3c52dd5" x="180.737108" y="557.689403" style="fill: #e24a33; fill-opacity: 0.8; stroke: #e24a33; stroke-opacity: 0.8"/>
     <use xlink:href="#m04a3c52dd5" x="249.783867" y="567.664565" style="fill: #e24a33; fill-opacity: 0.8; stroke: #e24a33; stroke-opacity: 0.8"/>
     <use xlink:href="#m04a3c52dd5" x="249.783867" y="562.676984" style="fill: #e24a33; fill-opacity: 0.8; stroke: #e24a33; stroke-opacity: 0.8"/>
     <use xlink:href="#m04a3c52dd5" x="249.783867" y="526.996598" style="fill: #e24a33; fill-opacity: 0.8; stroke: #e24a33; stroke-opacity: 0.8"/>
     <use xlink:href="#m04a3c52dd5" x="143.451858" y="531.60052" style="fill: #e24a33; fill-opacity: 0.8; stroke: #e24a33; stroke-opacity: 0.8"/>
     <use xlink:href="#m04a3c52dd5" x="143.451858" y="566.513584" style="fill: #e24a33; fill-opacity: 0.8; stroke: #e24a33; stroke-opacity: 0.8"/>
     <use xlink:href="#m04a3c52dd5" x="200.0702" y="566.897245" style="fill: #e24a33; fill-opacity: 0.8; stroke: #e24a33; stroke-opacity: 0.8"/>
     <use xlink:href="#m04a3c52dd5" x="200.0702" y="568.048225" style="fill: #e24a33; fill-opacity: 0.8; stroke: #e24a33; stroke-opacity: 0.8"/>
     <use xlink:href="#m04a3c52dd5" x="200.0702" y="568.431885" style="fill: #e24a33; fill-opacity: 0.8; stroke: #e24a33; stroke-opacity: 0.8"/>
     <use xlink:href="#m04a3c52dd5" x="125.499701" y="563.827964" style="fill: #e24a33; fill-opacity: 0.8; stroke: #e24a33; stroke-opacity: 0.8"/>
     <use xlink:href="#m04a3c52dd5" x="125.499701" y="566.897245" style="fill: #e24a33; fill-opacity: 0.8; stroke: #e24a33; stroke-opacity: 0.8"/>
     <use xlink:href="#m04a3c52dd5" x="147.594664" y="564.595284" style="fill: #e24a33; fill-opacity: 0.8; stroke: #e24a33; stroke-opacity: 0.8"/>
     <use xlink:href="#m04a3c52dd5" x="147.594664" y="539.657381" style="fill: #e24a33; fill-opacity: 0.8; stroke: #e24a33; stroke-opacity: 0.8"/>
     <use xlink:href="#m04a3c52dd5" x="197.032147" y="563.444304" style="fill: #e24a33; fill-opacity: 0.8; stroke: #e24a33; stroke-opacity: 0.8"/>
     <use xlink:href="#m04a3c52dd5" x="197.032147" y="558.840384" style="fill: #e24a33; fill-opacity: 0.8; stroke: #e24a33; stroke-opacity: 0.8"/>
     <use xlink:href="#m04a3c52dd5" x="151.461281" y="556.538423" style="fill: #e24a33; fill-opacity: 0.8; stroke: #e24a33; stroke-opacity: 0.8"/>
     <use xlink:href="#m04a3c52dd5" x="151.461281" y="555.003783" style="fill: #e24a33; fill-opacity: 0.8; stroke: #e24a33; stroke-opacity: 0.8"/>
     <use xlink:href="#m04a3c52dd5" x="237.35545" y="566.897245" style="fill: #e24a33; fill-opacity: 0.8; stroke: #e24a33; stroke-opacity: 0.8"/>
     <use xlink:href="#m04a3c52dd5" x="237.35545" y="564.595284" style="fill: #e24a33; fill-opacity: 0.8; stroke: #e24a33; stroke-opacity: 0.8"/>
     <use xlink:href="#m04a3c52dd5" x="336.782783" y="566.129924" style="fill: #e24a33; fill-opacity: 0.8; stroke: #e24a33; stroke-opacity: 0.8"/>
     <use xlink:href="#m04a3c52dd5" x="336.782783" y="560.375024" style="fill: #e24a33; fill-opacity: 0.8; stroke: #e24a33; stroke-opacity: 0.8"/>
     <use xlink:href="#m04a3c52dd5" x="293.973792" y="567.664565" style="fill: #e24a33; fill-opacity: 0.8; stroke: #e24a33; stroke-opacity: 0.8"/>
     <use xlink:href="#m04a3c52dd5" x="293.973792" y="567.280905" style="fill: #e24a33; fill-opacity: 0.8; stroke: #e24a33; stroke-opacity: 0.8"/>
     <use xlink:href="#m04a3c52dd5" x="121.356895" y="560.375024" style="fill: #e24a33; fill-opacity: 0.8; stroke: #e24a33; stroke-opacity: 0.8"/>
     <use xlink:href="#m04a3c52dd5" x="121.356895" y="568.431885" style="fill: #e24a33; fill-opacity: 0.8; stroke: #e24a33; stroke-opacity: 0.8"/>
     <use xlink:href="#m04a3c52dd5" x="247.021996" y="564.211624" style="fill: #e24a33; fill-opacity: 0.8; stroke: #e24a33; stroke-opacity: 0.8"/>
     <use xlink:href="#m04a3c52dd5" x="247.021996" y="454.868503" style="fill: #e24a33; fill-opacity: 0.8; stroke: #e24a33; stroke-opacity: 0.8"/>
     <use xlink:href="#m04a3c52dd5" x="247.021996" y="568.048225" style="fill: #e24a33; fill-opacity: 0.8; stroke: #e24a33; stroke-opacity: 0.8"/>
     <use xlink:href="#m04a3c52dd5" x="148.423225" y="568.815545" style="fill: #e24a33; fill-opacity: 0.8; stroke: #e24a33; stroke-opacity: 0.8"/>
     <use xlink:href="#m04a3c52dd5" x="148.423225" y="564.595284" style="fill: #e24a33; fill-opacity: 0.8; stroke: #e24a33; stroke-opacity: 0.8"/>
     <use xlink:href="#m04a3c52dd5" x="115.363636" y="565.362604" style="fill: #e24a33; fill-opacity: 0.8; stroke: #e24a33; stroke-opacity: 0.8"/>
     <use xlink:href="#m04a3c52dd5" x="115.363636" y="185.155483" style="fill: #e24a33; fill-opacity: 0.8; stroke: #e24a33; stroke-opacity: 0.8"/>
     <use xlink:href="#m04a3c52dd5" x="167.203944" y="540.04104" style="fill: #e24a33; fill-opacity: 0.8; stroke: #e24a33; stroke-opacity: 0.8"/>
     <use xlink:href="#m04a3c52dd5" x="167.203944" y="558.073063" style="fill: #e24a33; fill-opacity: 0.8; stroke: #e24a33; stroke-opacity: 0.8"/>
     <use xlink:href="#m04a3c52dd5" x="167.203944" y="568.431885" style="fill: #e24a33; fill-opacity: 0.8; stroke: #e24a33; stroke-opacity: 0.8"/>
     <use xlink:href="#m04a3c52dd5" x="357.49681" y="412.665896" style="fill: #e24a33; fill-opacity: 0.8; stroke: #e24a33; stroke-opacity: 0.8"/>
     <use xlink:href="#m04a3c52dd5" x="253.926672" y="567.664565" style="fill: #e24a33; fill-opacity: 0.8; stroke: #e24a33; stroke-opacity: 0.8"/>
     <use xlink:href="#m04a3c52dd5" x="253.926672" y="566.129924" style="fill: #e24a33; fill-opacity: 0.8; stroke: #e24a33; stroke-opacity: 0.8"/>
     <use xlink:href="#m04a3c52dd5" x="340.925588" y="567.664565" style="fill: #e24a33; fill-opacity: 0.8; stroke: #e24a33; stroke-opacity: 0.8"/>
     <use xlink:href="#m04a3c52dd5" x="340.925588" y="568.048225" style="fill: #e24a33; fill-opacity: 0.8; stroke: #e24a33; stroke-opacity: 0.8"/>
     <use xlink:href="#m04a3c52dd5" x="144.832793" y="462.158051" style="fill: #e24a33; fill-opacity: 0.8; stroke: #e24a33; stroke-opacity: 0.8"/>
     <use xlink:href="#m04a3c52dd5" x="144.832793" y="412.665896" style="fill: #e24a33; fill-opacity: 0.8; stroke: #e24a33; stroke-opacity: 0.8"/>
     <use xlink:href="#m04a3c52dd5" x="192.336966" y="341.688784" style="fill: #e24a33; fill-opacity: 0.8; stroke: #e24a33; stroke-opacity: 0.8"/>
     <use xlink:href="#m04a3c52dd5" x="192.336966" y="538.12274" style="fill: #e24a33; fill-opacity: 0.8; stroke: #e24a33; stroke-opacity: 0.8"/>
     <use xlink:href="#m04a3c52dd5" x="418.257958" y="563.827964" style="fill: #e24a33; fill-opacity: 0.8; stroke: #e24a33; stroke-opacity: 0.8"/>
     <use xlink:href="#m04a3c52dd5" x="418.257958" y="522.392677" style="fill: #e24a33; fill-opacity: 0.8; stroke: #e24a33; stroke-opacity: 0.8"/>
     <use xlink:href="#m04a3c52dd5" x="418.257958" y="556.922083" style="fill: #e24a33; fill-opacity: 0.8; stroke: #e24a33; stroke-opacity: 0.8"/>
     <use xlink:href="#m04a3c52dd5" x="172.175308" y="550.399861" style="fill: #e24a33; fill-opacity: 0.8; stroke: #e24a33; stroke-opacity: 0.8"/>
     <use xlink:href="#m04a3c52dd5" x="172.175308" y="492.083532" style="fill: #e24a33; fill-opacity: 0.8; stroke: #e24a33; stroke-opacity: 0.8"/>
     <use xlink:href="#m04a3c52dd5" x="622.636364" y="538.890059" style="fill: #e24a33; fill-opacity: 0.8; stroke: #e24a33; stroke-opacity: 0.8"/>
     <use xlink:href="#m04a3c52dd5" x="622.636364" y="392.331916" style="fill: #e24a33; fill-opacity: 0.8; stroke: #e24a33; stroke-opacity: 0.8"/>
     <use xlink:href="#m04a3c52dd5" x="158.918333" y="151.393397" style="fill: #e24a33; fill-opacity: 0.8; stroke: #e24a33; stroke-opacity: 0.8"/>
     <use xlink:href="#m04a3c52dd5" x="158.918333" y="541.575681" style="fill: #e24a33; fill-opacity: 0.8; stroke: #e24a33; stroke-opacity: 0.8"/>
     <use xlink:href="#m04a3c52dd5" x="141.794734" y="559.224043" style="fill: #e24a33; fill-opacity: 0.8; stroke: #e24a33; stroke-opacity: 0.8"/>
     <use xlink:href="#m04a3c52dd5" x="141.794734" y="551.934502" style="fill: #e24a33; fill-opacity: 0.8; stroke: #e24a33; stroke-opacity: 0.8"/>
     <use xlink:href="#m04a3c52dd5" x="137.099556" y="515.486796" style="fill: #e24a33; fill-opacity: 0.8; stroke: #e24a33; stroke-opacity: 0.8"/>
     <use xlink:href="#m04a3c52dd5" x="137.099556" y="559.224043" style="fill: #e24a33; fill-opacity: 0.8; stroke: #e24a33; stroke-opacity: 0.8"/>
     <use xlink:href="#m04a3c52dd5" x="481.780976" y="563.444304" style="fill: #e24a33; fill-opacity: 0.8; stroke: #e24a33; stroke-opacity: 0.8"/>
     <use xlink:href="#m04a3c52dd5" x="481.780976" y="568.048225" style="fill: #e24a33; fill-opacity: 0.8; stroke: #e24a33; stroke-opacity: 0.8"/>
     <use xlink:href="#m04a3c52dd5" x="462.447883" y="557.689403" style="fill: #e24a33; fill-opacity: 0.8; stroke: #e24a33; stroke-opacity: 0.8"/>
     <use xlink:href="#m04a3c52dd5" x="462.447883" y="524.310978" style="fill: #e24a33; fill-opacity: 0.8; stroke: #e24a33; stroke-opacity: 0.8"/>
     <use xlink:href="#m04a3c52dd5" x="462.447883" y="558.840384" style="fill: #e24a33; fill-opacity: 0.8; stroke: #e24a33; stroke-opacity: 0.8"/>
     <use xlink:href="#m04a3c52dd5" x="150.908911" y="559.607703" style="fill: #e24a33; fill-opacity: 0.8; stroke: #e24a33; stroke-opacity: 0.8"/>
     <use xlink:href="#m04a3c52dd5" x="150.908911" y="568.431885" style="fill: #e24a33; fill-opacity: 0.8; stroke: #e24a33; stroke-opacity: 0.8"/>
     <use xlink:href="#m04a3c52dd5" x="176.594302" y="561.526004" style="fill: #e24a33; fill-opacity: 0.8; stroke: #e24a33; stroke-opacity: 0.8"/>
     <use xlink:href="#m04a3c52dd5" x="176.594302" y="568.048225" style="fill: #e24a33; fill-opacity: 0.8; stroke: #e24a33; stroke-opacity: 0.8"/>
     <use xlink:href="#m04a3c52dd5" x="398.924865" y="556.922083" style="fill: #e24a33; fill-opacity: 0.8; stroke: #e24a33; stroke-opacity: 0.8"/>
     <use xlink:href="#m04a3c52dd5" x="398.924865" y="550.399861" style="fill: #e24a33; fill-opacity: 0.8; stroke: #e24a33; stroke-opacity: 0.8"/>
     <use xlink:href="#m04a3c52dd5" x="398.924865" y="564.595284" style="fill: #e24a33; fill-opacity: 0.8; stroke: #e24a33; stroke-opacity: 0.8"/>
     <use xlink:href="#m04a3c52dd5" x="164.165886" y="556.154763" style="fill: #e24a33; fill-opacity: 0.8; stroke: #e24a33; stroke-opacity: 0.8"/>
     <use xlink:href="#m04a3c52dd5" x="164.165886" y="567.280905" style="fill: #e24a33; fill-opacity: 0.8; stroke: #e24a33; stroke-opacity: 0.8"/>
     <use xlink:href="#m04a3c52dd5" x="138.480491" y="561.526004" style="fill: #e24a33; fill-opacity: 0.8; stroke: #e24a33; stroke-opacity: 0.8"/>
     <use xlink:href="#m04a3c52dd5" x="138.480491" y="561.142344" style="fill: #e24a33; fill-opacity: 0.8; stroke: #e24a33; stroke-opacity: 0.8"/>
     <use xlink:href="#m04a3c52dd5" x="305.021274" y="564.978944" style="fill: #e24a33; fill-opacity: 0.8; stroke: #e24a33; stroke-opacity: 0.8"/>
     <use xlink:href="#m04a3c52dd5" x="305.021274" y="561.526004" style="fill: #e24a33; fill-opacity: 0.8; stroke: #e24a33; stroke-opacity: 0.8"/>
     <use xlink:href="#m04a3c52dd5" x="143.451858" y="111.109091" style="fill: #e24a33; fill-opacity: 0.8; stroke: #e24a33; stroke-opacity: 0.8"/>
     <use xlink:href="#m04a3c52dd5" x="143.451858" y="533.902478" style="fill: #e24a33; fill-opacity: 0.8; stroke: #e24a33; stroke-opacity: 0.8"/>
     <use xlink:href="#m04a3c52dd5" x="200.898759" y="533.51882" style="fill: #e24a33; fill-opacity: 0.8; stroke: #e24a33; stroke-opacity: 0.8"/>
     <use xlink:href="#m04a3c52dd5" x="200.898759" y="560.375024" style="fill: #e24a33; fill-opacity: 0.8; stroke: #e24a33; stroke-opacity: 0.8"/>
     <use xlink:href="#m04a3c52dd5" x="200.898759" y="566.897245" style="fill: #e24a33; fill-opacity: 0.8; stroke: #e24a33; stroke-opacity: 0.8"/>
     <use xlink:href="#m04a3c52dd5" x="184.603725" y="567.664565" style="fill: #e24a33; fill-opacity: 0.8; stroke: #e24a33; stroke-opacity: 0.8"/>
     <use xlink:href="#m04a3c52dd5" x="184.603725" y="523.927318" style="fill: #e24a33; fill-opacity: 0.8; stroke: #e24a33; stroke-opacity: 0.8"/>
     <use xlink:href="#m04a3c52dd5" x="136.270994" y="556.538423" style="fill: #e24a33; fill-opacity: 0.8; stroke: #e24a33; stroke-opacity: 0.8"/>
     <use xlink:href="#m04a3c52dd5" x="136.270994" y="555.003783" style="fill: #e24a33; fill-opacity: 0.8; stroke: #e24a33; stroke-opacity: 0.8"/>
     <use xlink:href="#m04a3c52dd5" x="134.337686" y="547.330582" style="fill: #e24a33; fill-opacity: 0.8; stroke: #e24a33; stroke-opacity: 0.8"/>
     <use xlink:href="#m04a3c52dd5" x="134.337686" y="561.142344" style="fill: #e24a33; fill-opacity: 0.8; stroke: #e24a33; stroke-opacity: 0.8"/>
     <use xlink:href="#m04a3c52dd5" x="197.30833" y="562.676984" style="fill: #e24a33; fill-opacity: 0.8; stroke: #e24a33; stroke-opacity: 0.8"/>
     <use xlink:href="#m04a3c52dd5" x="197.30833" y="564.978944" style="fill: #e24a33; fill-opacity: 0.8; stroke: #e24a33; stroke-opacity: 0.8"/>
     <use xlink:href="#m04a3c52dd5" x="222.71754" y="553.852802" style="fill: #e24a33; fill-opacity: 0.8; stroke: #e24a33; stroke-opacity: 0.8"/>
     <use xlink:href="#m04a3c52dd5" x="222.71754" y="381.973091" style="fill: #e24a33; fill-opacity: 0.8; stroke: #e24a33; stroke-opacity: 0.8"/>
     <use xlink:href="#m04a3c52dd5" x="329.878107" y="559.607703" style="fill: #e24a33; fill-opacity: 0.8; stroke: #e24a33; stroke-opacity: 0.8"/>
     <use xlink:href="#m04a3c52dd5" x="329.878107" y="561.526004" style="fill: #e24a33; fill-opacity: 0.8; stroke: #e24a33; stroke-opacity: 0.8"/>
    </g>
   </g>
   <g id="PolyCollection_1">
    <path d="M 115.363636 506.607468 
L 115.363636 555.612072 
L 120.487603 555.332221 
L 125.61157 554.997736 
L 130.735537 554.541204 
L 135.859504 554.188024 
L 140.983471 553.785366 
L 146.107438 553.47904 
L 151.231405 553.14732 
L 156.355372 552.982394 
L 161.479339 552.786753 
L 166.603306 552.32341 
L 171.727273 552.058136 
L 176.85124 551.733842 
L 181.975207 551.489684 
L 187.099174 551.338249 
L 192.22314 551.154512 
L 197.347107 551.006545 
L 202.471074 550.842861 
L 207.595041 550.627297 
L 212.719008 550.660211 
L 217.842975 550.582707 
L 222.966942 550.463036 
L 228.090909 550.245824 
L 233.214876 550.046958 
L 238.338843 550.11538 
L 243.46281 550.313536 
L 248.586777 550.462764 
L 253.710744 550.760857 
L 258.834711 550.879996 
L 263.958678 550.932312 
L 269.082645 551.137813 
L 274.206612 551.342707 
L 279.330579 551.754534 
L 284.454545 552.045683 
L 289.578512 552.328089 
L 294.702479 552.59829 
L 299.826446 552.898573 
L 304.950413 553.531401 
L 310.07438 554.223077 
L 315.198347 554.639417 
L 320.322314 555.144444 
L 325.446281 555.778453 
L 330.570248 556.443413 
L 335.694215 557.240153 
L 340.818182 558.034806 
L 345.942149 558.817503 
L 351.066116 559.623458 
L 356.190083 560.413655 
L 361.31405 561.112957 
L 366.438017 561.867227 
L 371.561983 562.664893 
L 376.68595 563.584051 
L 381.809917 564.39112 
L 386.933884 565.29093 
L 392.057851 566.19074 
L 397.181818 567.043418 
L 402.305785 567.707503 
L 407.429752 568.369221 
L 412.553719 569.13848 
L 417.677686 570.068487 
L 422.801653 570.800259 
L 427.92562 571.889989 
L 433.049587 572.979719 
L 438.173554 574.069449 
L 443.297521 575.032295 
L 448.421488 575.85096 
L 453.545455 576.668824 
L 458.669421 577.486688 
L 463.793388 578.304398 
L 468.917355 579.35477 
L 474.041322 580.439289 
L 479.165289 581.453749 
L 484.289256 582.344256 
L 489.413223 583.234763 
L 494.53719 584.125269 
L 499.661157 585.015776 
L 504.785124 585.906283 
L 509.909091 586.79679 
L 515.033058 587.687296 
L 520.157025 588.577803 
L 525.280992 589.46831 
L 530.404959 590.358817 
L 535.528926 591.249202 
L 540.652893 592.137278 
L 545.77686 592.990732 
L 550.900826 593.752786 
L 556.024793 594.477435 
L 561.14876 595.202083 
L 566.272727 595.926732 
L 571.396694 596.781802 
L 576.520661 597.732455 
L 581.644628 598.611563 
L 586.768595 599.418191 
L 591.892562 600.224818 
L 597.016529 601.031445 
L 602.140496 601.838073 
L 607.264463 602.6447 
L 612.38843 603.451327 
L 617.512397 604.349729 
L 622.636364 605.290909 
L 622.636364 501.697443 
L 622.636364 501.697443 
L 617.512397 502.142361 
L 612.38843 502.587278 
L 607.264463 503.032196 
L 602.140496 503.48047 
L 597.016529 503.994491 
L 591.892562 504.508513 
L 586.768595 505.00965 
L 581.644628 505.422148 
L 576.520661 505.834645 
L 571.396694 506.185143 
L 566.272727 506.587051 
L 561.14876 507.068809 
L 556.024793 507.484633 
L 550.900826 507.90774 
L 545.77686 508.358007 
L 540.652893 508.956129 
L 535.528926 509.477597 
L 530.404959 509.959355 
L 525.280992 510.441113 
L 520.157025 510.789675 
L 515.033058 511.123532 
L 509.909091 511.457389 
L 504.785124 511.893229 
L 499.661157 512.333527 
L 494.53719 512.773825 
L 489.413223 513.215515 
L 484.289256 513.65783 
L 479.165289 514.100687 
L 474.041322 514.547445 
L 468.917355 514.994203 
L 463.793388 515.440025 
L 458.669421 515.881571 
L 453.545455 516.323117 
L 448.421488 516.764663 
L 443.297521 517.206209 
L 438.173554 517.647755 
L 433.049587 518.089301 
L 427.92562 518.530847 
L 422.801653 518.974769 
L 417.677686 519.420389 
L 412.553719 519.86601 
L 407.429752 520.228708 
L 402.305785 520.637971 
L 397.181818 521.129034 
L 392.057851 521.208029 
L 386.933884 521.422194 
L 381.809917 521.76165 
L 376.68595 522.225224 
L 371.561983 522.418726 
L 366.438017 522.940255 
L 361.31405 523.236149 
L 356.190083 523.540936 
L 351.066116 523.794403 
L 345.942149 524.175262 
L 340.818182 524.530602 
L 335.694215 524.313889 
L 330.570248 524.484216 
L 325.446281 524.965708 
L 320.322314 525.205935 
L 315.198347 525.318678 
L 310.07438 525.33641 
L 304.950413 525.39134 
L 299.826446 525.496682 
L 294.702479 525.399801 
L 289.578512 525.84039 
L 284.454545 525.591438 
L 279.330579 525.670822 
L 274.206612 525.487457 
L 269.082645 525.309329 
L 263.958678 525.488542 
L 258.834711 525.065147 
L 253.710744 524.54343 
L 248.586777 524.390983 
L 243.46281 523.869315 
L 238.338843 523.319455 
L 233.214876 522.521695 
L 228.090909 521.962517 
L 222.966942 521.14827 
L 217.842975 520.310229 
L 212.719008 519.717722 
L 207.595041 519.434107 
L 202.471074 518.799042 
L 197.347107 518.3482 
L 192.22314 517.692767 
L 187.099174 517.186959 
L 181.975207 516.664099 
L 176.85124 516.009358 
L 171.727273 515.040841 
L 166.603306 514.523317 
L 161.479339 513.802094 
L 156.355372 513.048085 
L 151.231405 512.404711 
L 146.107438 511.628214 
L 140.983471 510.7539 
L 135.859504 509.998651 
L 130.735537 509.50841 
L 125.61157 508.480859 
L 120.487603 507.171501 
L 115.363636 506.607468 
z
" clip-path="url(#p07800d8b35)" style="fill: #e24a33; fill-opacity: 0.15"/>
   </g>
   <g id="line2d_31">
    <path d="M 115.363636 534.441743 
L 120.487603 534.591364 
L 125.61157 534.740985 
L 130.735537 534.890605 
L 135.859504 535.040226 
L 140.983471 535.189847 
L 146.107438 535.339468 
L 151.231405 535.489089 
L 156.355372 535.638709 
L 161.479339 535.78833 
L 166.603306 535.937951 
L 171.727273 536.087572 
L 176.85124 536.237192 
L 181.975207 536.386813 
L 187.099174 536.536434 
L 192.22314 536.686055 
L 197.347107 536.835676 
L 202.471074 536.985296 
L 207.595041 537.134917 
L 212.719008 537.284538 
L 217.842975 537.434159 
L 222.966942 537.58378 
L 228.090909 537.7334 
L 233.214876 537.883021 
L 238.338843 538.032642 
L 243.46281 538.182263 
L 248.586777 538.331884 
L 253.710744 538.481504 
L 258.834711 538.631125 
L 263.958678 538.780746 
L 269.082645 538.930367 
L 274.206612 539.079988 
L 279.330579 539.229608 
L 284.454545 539.379229 
L 289.578512 539.52885 
L 294.702479 539.678471 
L 299.826446 539.828092 
L 304.950413 539.977712 
L 310.07438 540.127333 
L 315.198347 540.276954 
L 320.322314 540.426575 
L 325.446281 540.576196 
L 330.570248 540.725816 
L 335.694215 540.875437 
L 340.818182 541.025058 
L 345.942149 541.174679 
L 351.066116 541.3243 
L 356.190083 541.47392 
L 361.31405 541.623541 
L 366.438017 541.773162 
L 371.561983 541.922783 
L 376.68595 542.072403 
L 381.809917 542.222024 
L 386.933884 542.371645 
L 392.057851 542.521266 
L 397.181818 542.670887 
L 402.305785 542.820507 
L 407.429752 542.970128 
L 412.553719 543.119749 
L 417.677686 543.26937 
L 422.801653 543.418991 
L 427.92562 543.568611 
L 433.049587 543.718232 
L 438.173554 543.867853 
L 443.297521 544.017474 
L 448.421488 544.167095 
L 453.545455 544.316715 
L 458.669421 544.466336 
L 463.793388 544.615957 
L 468.917355 544.765578 
L 474.041322 544.915199 
L 479.165289 545.064819 
L 484.289256 545.21444 
L 489.413223 545.364061 
L 494.53719 545.513682 
L 499.661157 545.663303 
L 504.785124 545.812923 
L 509.909091 545.962544 
L 515.033058 546.112165 
L 520.157025 546.261786 
L 525.280992 546.411407 
L 530.404959 546.561027 
L 535.528926 546.710648 
L 540.652893 546.860269 
L 545.77686 547.00989 
L 550.900826 547.159511 
L 556.024793 547.309131 
L 561.14876 547.458752 
L 566.272727 547.608373 
L 571.396694 547.757994 
L 576.520661 547.907615 
L 581.644628 548.057235 
L 586.768595 548.206856 
L 591.892562 548.356477 
L 597.016529 548.506098 
L 602.140496 548.655718 
L 607.264463 548.805339 
L 612.38843 548.95496 
L 617.512397 549.104581 
L 622.636364 549.254202 
" clip-path="url(#p07800d8b35)" style="fill: none; stroke: #e24a33; stroke-width: 2.25; stroke-linecap: square"/>
   </g>
   <g id="patch_3">
    <path d="M 90 630 
L 90 86.4 
" style="fill: none; stroke: #ffffff; stroke-linejoin: miter; stroke-linecap: square"/>
   </g>
   <g id="patch_4">
    <path d="M 648 630 
L 648 86.4 
" style="fill: none; stroke: #ffffff; stroke-linejoin: miter; stroke-linecap: square"/>
   </g>
   <g id="patch_5">
    <path d="M 90 630 
L 648 630 
" style="fill: none; stroke: #ffffff; stroke-linejoin: miter; stroke-linecap: square"/>
   </g>
   <g id="patch_6">
    <path d="M 90 86.4 
L 648 86.4 
" style="fill: none; stroke: #ffffff; stroke-linejoin: miter; stroke-linecap: square"/>
   </g>
  </g>
 </g>
 <defs>
  <clipPath id="p07800d8b35">
   <rect x="90" y="86.4" width="558" height="543.6"/>
  </clipPath>
 </defs>
</svg>
